<svg xmlns="http://www.w3.org/2000/svg" xmlns:xlink="http://www.w3.org/1999/xlink" viewBox="0 0 1920.18 1080.88"><defs><style>.cls-1{fill:url(#linear-gradient);}.cls-12,.cls-2{fill:#ececec;}.cls-10,.cls-12,.cls-2,.cls-5,.cls-6,.cls-7,.cls-8,.cls-9{stroke:#dcdcdc;}.cls-3,.cls-5,.cls-8{fill:#f7f8f9;}.cls-11,.cls-3,.cls-4{stroke:#ececec;}.cls-10,.cls-11,.cls-17,.cls-21,.cls-23,.cls-26,.cls-34,.cls-35,.cls-38,.cls-4,.cls-42,.cls-6,.cls-9{fill:none;}.cls-17,.cls-23,.cls-26,.cls-27,.cls-34,.cls-35,.cls-38,.cls-42,.cls-6,.cls-8{stroke-width:0.75px;}.cls-7{fill:#dcdcdc;}.cls-21,.cls-7{stroke-miterlimit:10;}.cls-10,.cls-11,.cls-12{stroke-width:2px;}.cls-13{fill:#fabb9b;}.cls-14{fill:#fcd716;}.cls-15{fill:#fddf5b;}.cls-16{fill:#fbc620;}.cls-17{stroke:#f5ac28;}.cls-18,.cls-27{fill:#fff;}.cls-19{fill:#f2a688;}.cls-20{fill:#f2ae8e;}.cls-21{stroke:#68401c;}.cls-22{fill:#68401c;}.cls-23,.cls-27{stroke:#ee8865;}.cls-24{fill:#7f552c;}.cls-25{fill:#714825;}.cls-26{stroke:#a56f41;}.cls-28{fill:#c3daf1;}.cls-29{fill:#83acdb;}.cls-30{fill:#cfe4f5;}.cls-31{fill:#a7c8e9;}.cls-32{fill:#b25f48;}.cls-33{fill:#904839;}.cls-34{stroke:#83acdb;}.cls-35{stroke:#924735;}.cls-36{fill:#ffe9cb;}.cls-37{fill:#ecd5b6;}.cls-38{stroke:#c6ab8b;}.cls-39{fill:#9f503e;}.cls-40{fill:#d19730;}.cls-41{fill:#c2882b;}.cls-42{stroke:#ebb55f;}.cls-43{fill:#93bde4;}.cls-44{opacity:0.6;}.cls-45{fill:#e65d86;}.cls-46{fill:#cf7f9c;}.cls-47{fill:#b398b4;}.cls-48{fill:#8fb0cc;}</style><linearGradient id="linear-gradient" x1="1914.49" y1="540" x2="-5.51" y2="540" gradientUnits="userSpaceOnUse"><stop offset="0" stop-color="#737d87"/><stop offset="1" stop-color="#8699ac"/></linearGradient></defs><title>Asset 4backgroundSVG</title><g id="Layer_2" data-name="Layer 2"><g id="Layer_1-2" data-name="Layer 1"><rect class="cls-1" width="1920" height="1080"/><g id="background"><path class="cls-2" d="M1442.42,995.58v5.71L1335,1015.75l-134.22,26.16s-7.23-5.89,6.34-16.13,88.73-23.37,126.91-16.1C1334,1009.57,1372.82,982,1442.42,995.58Z"/><path class="cls-3" d="M1454.69,997.2s-84.31-4.06-109.91,16.49c-10.85,8.68-19,2.1-31.36,1.81s-78.79-7.72-115.7,29.14l-68.33-54.87s40.91-44.68,113.4-17.95c0,0,21.69-26.26,100.15-13C1343.62,959.78,1454.69,997.2,1454.69,997.2Z"/><line class="cls-4" x1="1242.77" y1="971.88" x2="1336.88" y2="1009.57"/><path class="cls-5" d="M659.38,465.66v536.5c92.62-27,216.94-44.57,352.52-55V465.66Z"/><polyline class="cls-4" points="659.38 612.29 685.14 612.29 685.14 703.73"/><path class="cls-4" d="M830,697.8V606.6L853,608v93.83"/><polyline class="cls-4" points="877.96 708.01 877.96 614.64 853 613.72"/><polyline class="cls-2" points="897.32 708.01 898.64 624.12 877.96 624.12 877.96 708.01"/><polyline class="cls-6" points="987.66 708.01 1011.95 626.27 993.13 621.89"/><path class="cls-2" d="M968.24,707.65c.22.36,27.57-95.09,27.57-95.09L973.66,611l-29.41,97"/><polyline class="cls-6" points="966.02 636.17 937.83 632.97 905.71 708.01"/><path class="cls-7" d="M882.82,571.89c-.25,0-24.31-90.93-24.31-90.93l-16.27,2.28L865,571.82"/><polyline class="cls-8" points="838.66 569.68 839.33 474.56 810.75 474.56 812.03 566.28"/><polyline class="cls-8" points="810.84 480.96 777.81 480.96 780.13 567.23"/><polygon class="cls-4" points="704.61 472.55 681 474.56 707.04 571.89 726.45 565.2 704.61 472.55"/><polyline class="cls-2" points="682.72 570.97 659.38 485.59 682.72 480.96 707.04 571.89"/><polyline class="cls-4" points="909 547.32 895.57 547.32 895.57 571.89"/><line class="cls-4" x1="990.22" y1="549.02" x2="989.63" y2="571.89"/><rect class="cls-4" x="891.94" y="516.39" width="97.69" height="15.6"/><polyline class="cls-2" points="989.63 531.99 1002.01 531.99 1002.01 549.26 909 547.32 909 531.99"/><rect class="cls-9" x="659.38" y="571.89" width="352.57" height="23.9"/><rect class="cls-9" x="659.38" y="708.01" width="352.57" height="23.9"/><path class="cls-10" d="M633.46,434.19v576q12.51-4.17,25.92-8.06c92.62-27,216.94-44.57,352.52-55q12.87-1,25.92-1.9V434.19Z"/><path class="cls-10" d="M490.74,1080,560,1041.67c20.38-11.57,45.1-22,73.38-31.45l.08,0h0c8.31-2.75,16.93-5.45,25.84-8h.07l3.27-.94c3.29-.94,6.6-1.87,10-2.78l4.5-1.22,1.75-.47.07,0c2.18-.59,4.4-1.15,6.61-1.73h0c.22,0,.42-.11.64-.15l.07,0,.45-.12c2.62-.69,5.28-1.35,8-2l.89-.22c1.39-.35,2.78-.68,4.19-1l1.62-.39,1.29-.32,2.2-.52.18,0,1.11-.26h0c1.22-.29,2.45-.59,3.68-.87l.24-.05,6.68-1.52.89-.2,1.48-.33.45-.1.49-.11,4.44-1c.66-.15,1.34-.3,2-.43l.42-.09.61-.12c.31-.08.63-.14,1-.21l1-.21,2-.43.61-.13L733,984l.25-.06.18,0,.42-.09h0l.55-.12.74-.16h0l8-1.65.83-.16,1.75-.36,3.86-.77.12,0,1-.21,3.2-.62.27-.05.53-.09,1.82-.36.47-.09,1.59-.31.66-.12.66-.12c.15,0,.3-.06.46-.09l.78-.14.56-.12.25,0,.26,0,.31,0,1.13-.22.41-.08h0l2.58-.47.57-.11.64-.12,2.53-.47,2-.37,3.25-.58,5.33-.94h0l1-.19,2.16-.37,2.16-.37h0l3.66-.62,1.74-.3.73-.12c1.09-.19,2.17-.37,3.27-.54l6.2-1,.72-.12h0l.31-.06,3.37-.53,1.81-.29,1.08-.17,4.47-.7,5.35-.82h.14l.06,0h0l.77-.11c2.06-.31,4.14-.63,6.22-.93h0s0,0,0,0l2.36-.34,3.77-.55,3.75-.55,1.13-.16,2.27-.32,2.28-.32,3-.42.72-.1,3.77-.52,3.78-.51,3.69-.5.11,0,6.88-.9,6.39-.82q7.24-.92,14.57-1.81h0l6.81-.82h0l1.14-.14,1.59-.19h0l6-.69h0q3-.36,6-.68c2-.23,4-.46,6-.67s4-.45,6-.66l6.06-.65q6.57-.7,13.18-1.37h0c2.17-.21,4.33-.44,6.51-.64h0q19.8-2,40-3.66h0l.36,0h0c.59-.06,1.16-.11,1.75-.15,2.09-.19,4.18-.36,6.29-.52s4.2-.35,6.31-.51l1.23-.1,3.22-.25h.05l2.23-.18,5.95-.47h.05l11-.83,5.54-.41,5.54-.38h0c1.25-.1,2.51-.18,3.76-.27h.06c3.89-.27,7.8-.54,11.7-.79s8-.53,12-.78l11.56-.71,11.84-.7h.23l5.62-.32,7.31-.4,9.51-.49,3-.16.27,0,3-.14q4.8-.25,9.61-.48,14.54-.69,29.13-1.28l1,0q8.46-.36,16.92-.66,10.32-.39,20.66-.72,11.13-.35,22.28-.67t22.33-.58q21.56-.52,43.25-.81h.32l1.56,0,4.42-.08,4.5-.06h0c3.58,0,7.15-.1,10.7-.13l5.16,0,5.17-.05c3.45,0,6.89-.06,10.33-.08l3,0,5.85,0q16.51-.07,32.93-.06h11l5.61,0,10.57.06,11.82.08,2.32,0,14.09.14h.3l10.34.13,6.3.08,10.8.17h.27l11.88.21,3.34.06h0l6.06.12,1.38,0,12.61.26h0c2.8.07,5.6.13,8.39.21l10.81.28,10.75.29,4,.11c5.21.15,10.38.31,15.55.48h0l1.73.06q15.92.51,31.56,1.12,10.79.4,21.43.86l9.49.43,9.72.45.94,0,9.38.46.43,0q6.91.32,13.75.68h0l3.55.19,10.58.58,1.73.1,3.72.2,5.41.32,9.93.59.26,0h0l1,.06,1.58.09,5,.31,5,.31a2.83,2.83,0,0,1,.41,0l.63,0,.67,0,.22,0,.82,0,.26,0,3.65.24,4.71.3,4.69.32q5.42.35,10.8.72l5.37.37,5.34.38,14.88,1.13,14.59,1.16c4.62.37,9.18.76,13.7,1.14q29.4,2.52,56,5.34l1.92.2h0c40.59,4.36,75.74,9.24,103.91,14.45"/><path class="cls-5" d="M1300.62,330.82V935.25c140.08-1.48,277.62,2.66,392.9,10.41V330.82Z"/><polyline class="cls-4" points="1426.11 898.3 1396.23 807.21 1378.97 808.91 1405.21 898.14"/><polyline class="cls-4" points="1381.62 898.14 1351.29 787.18 1372.4 787.18 1378.97 808.91"/><polyline class="cls-2" points="1360.83 898.14 1338.6 804.77 1355.81 803.7 1381.62 898.14"/><path class="cls-4" d="M1300.62,784.28c0,.44,34,0,34,0l-1.25,113"/><polyline class="cls-2" points="1438.03 658.79 1412.23 658.79 1391.57 746.01 1414.74 746.01"/><path class="cls-5" d="M1370.9,649.73h20.67s-1.7,96.37-3.51,96.37h-19.89"/><path class="cls-5" d="M1368.17,746.1c1.25-1.51,2.77-112.55,2.77-112.55h-24.86V746.1"/><path class="cls-2" d="M1328.4,746.1l-25.31-94.34,18.08-6.22s25,85.69,25,86.39V746.1"/><polyline class="cls-5" points="1434.34 746.01 1461.33 647 1441.3 643.75 1414.74 746.01"/><polyline class="cls-4" points="1548.01 698.81 1556.22 698.2 1556.22 707.49"/><line class="cls-4" x1="1463.95" y1="702.84" x2="1464.69" y2="717.56"/><polyline class="cls-4" points="1543.35 680.03 1545.44 663.13 1463.03 663.13 1463.03 680.03"/><polygon class="cls-7" points="1548.01 698.81 1549.37 680.03 1456.85 680.03 1455.78 703.02 1548.01 698.81"/><polyline class="cls-4" points="1549.37 715.26 1459.61 717.56 1459.61 746.01"/><rect class="cls-6" x="1525.21" y="536.26" width="109.35" height="17.52"/><path class="cls-6" d="M1530.28,593.51c-.91,1.66,0-24.37,0-24.37l89-1.21v25.94"/><line class="cls-6" x1="1535.63" y1="553.78" x2="1535.63" y2="569.07"/><polyline class="cls-2" points="1515.16 594.02 1511.38 473.69 1483.24 475.32 1485.66 593.89"/><polyline class="cls-6" points="1483.38 482.28 1459.92 482.28 1462.05 593.89"/><line class="cls-6" x1="1613.07" y1="554.97" x2="1612.17" y2="568.02"/><polyline class="cls-4" points="1693.52 493.76 1668.17 493.76 1663.71 594.02"/><polyline class="cls-4" points="1642.61 593.51 1645.56 501.78 1667.87 500.59"/><polyline class="cls-4" points="1459.92 593.89 1434.95 490.74 1408.74 496.74"/><polyline class="cls-4" points="1435.44 593.89 1405.16 482.28 1379.24 492.44 1405.87 593.89"/><polyline class="cls-4" points="1342.63 594.02 1344.18 473.69 1379.09 472.37 1379.09 594.02"/><polyline class="cls-2" points="1312.73 594.02 1314.56 483.47 1344.18 483.47 1341.64 594.02"/><rect class="cls-9" x="1300.62" y="593.87" width="392.92" height="23.92"/><rect class="cls-9" x="1300.62" y="746.01" width="392.92" height="23.9"/><rect class="cls-10" x="1300.62" y="898.14" width="392.92" height="23.92"/><path class="cls-10" d="M1279.11,300.34v635.2q10.85-.18,21.51-.29c140.08-1.48,277.62,2.66,392.9,10.41q10.85.71,21.51,1.49V300.34Z"/><polygon class="cls-6" points="1449.85 343.22 1453.86 355.81 1481.29 441.77 1498.06 441.77 1465.32 339.07 1449.85 343.22"/><polyline class="cls-6" points="1453.84 355.81 1430.41 362.02 1454.69 441.77"/><line class="cls-6" x1="1429.85" y1="330.84" x2="1431.84" y2="441.75"/><line class="cls-6" x1="1421.21" y1="339.74" x2="1397.48" y2="339.74"/><line class="cls-6" x1="1390.45" y1="330.84" x2="1390.45" y2="441.75"/><line class="cls-6" x1="1390.45" y1="389.56" x2="1374.54" y2="441.75"/><polyline class="cls-6" points="1360.11 441.75 1344.18 435.08 1376.53 351.7 1390.45 355.81"/><polyline class="cls-6" points="1347.13 436.31 1345.16 441.75 1338.31 441.75 1326.58 435.82 1347.42 363.98 1369.57 369.65"/><rect class="cls-9" x="1300.62" y="441.75" width="392.92" height="23.9"/><polyline class="cls-4" points="1650.53 441.77 1668.79 441.77 1693.52 362.06 1673.83 355.81 1650.35 431.23"/><polyline class="cls-4" points="1625.37 441.77 1650.53 441.77 1650.35 431.23 1648.78 341.44 1627.19 341.44 1626.67 369.26 1625.29 441.77"/><path class="cls-4" d="M1573.86,441.77h28.67l1.29-78.73.38-23.18-25.22-.79s-.24,4.68-.6,12.16C1577.3,373.7,1575,421.16,1573.86,441.77Z"/><polyline class="cls-2" points="1625.37 441.77 1626.67 369.26 1626.87 357.61 1603.82 363.04 1603.8 363.04 1602.53 441.77 1625.29 441.77"/><polygon class="cls-2" points="1573.86 441.77 1548.82 441.77 1551.03 355.81 1551.14 351.23 1578.38 351.23 1573.86 441.77"/><polyline class="cls-4" points="1551.03 355.81 1523.5 355.81 1522.65 441.77 1548.82 441.77"/><path class="cls-3" d="M1014.34,1065.21h0l-27.11,8.43h0L966.76,1080H822.15l-72.47-36c-4.19-10.94,4.68-14,4.68-14l30.85-3.45,31.77-3.54,4.24-.48h0l62.62-7,97.4,37.14h0l14.33,5.46Z"/><path class="cls-3" d="M854.67,1080h-1.21c-27.77-13.23-74.1-35.69-99.1-50Z"/><path class="cls-2" d="M1014.34,1065.21a28.52,28.52,0,0,0-5.69,5.39c-2.82,3.68-3,6.84-2,9.4h-84l2.52-.45c39.17-7,87.67-14.11,89.17-14.33Z"/><circle class="cls-11" cx="854.59" cy="324.64" r="63.9" transform="translate(365.68 1097.1) rotate(-78.47)"/><path class="cls-7" d="M823.66,342.56l23.39-16.82a8.47,8.47,0,0,1-.11-1.14,7.62,7.62,0,0,1,4.07-6.72c.41-8.73,1.17-24.69,1.9-39.66.14-3.09,3.1-3.08,3.23,0L858,317.7a7.63,7.63,0,0,1-3.31,14.46,7.51,7.51,0,0,1-4.46-1.46l-24.7,14.46C822.75,346.88,821.12,344.36,823.66,342.56Z"/><path class="cls-5" d="M1613.87,1058.65c-3,1.3-46.31,11.56-88.31,21.35H1377l-59.41-16.24c15.72-5.8,3.61-25.52,3.61-25.52l176.69-33.3s98.87,29.32,113.55,34.09S1619.74,1056.08,1613.87,1058.65Z"/><path class="cls-3" d="M1445.55,1080h-38.7l-85.59-41.68c1.67.55,108.89,35.75,121.56,40.41A17.28,17.28,0,0,1,1445.55,1080Z"/><line class="cls-9" x1="1589.77" y1="1048.58" x2="1470.95" y2="1076.91"/><path class="cls-3" d="M1841.94,1056.43c-18.8-4.36-15.42-10.33-10.51-21.86s19.89-22.85,43.23-17.93,23.33,27.26,5.11,33.64S1851.46,1058.63,1841.94,1056.43Z"/><path class="cls-5" d="M1837.67,1039.81a75.75,75.75,0,0,0-5.42,13.27"/><path class="cls-5" d="M1846,1033.3a48.63,48.63,0,0,1-5.62,7.09c-2.39,2.37-4.93,1.43-4.46-1.08a24.12,24.12,0,0,1,5.42-10.69,3.32,3.32,0,0,1,4.66,4.68Z"/><path class="cls-12" d="M1024.37,0V325.27a12.76,12.76,0,0,1,3,8.6v8.87a12.79,12.79,0,0,1-3,8.61V364h-8.48V351.35a12.79,12.79,0,0,1-3-8.61v-8.87a12.79,12.79,0,0,1,3-8.6V0"/><path class="cls-12" d="M1391,0V325.27a12.79,12.79,0,0,1,3,8.6v8.87a12.79,12.79,0,0,1-3,8.61V364h-8.48V351.35a12.86,12.86,0,0,1-3-8.61v-8.87a12.81,12.81,0,0,1,3-8.6V0"/><rect class="cls-12" x="998.11" y="345.79" width="410.63" height="25.6"/><rect class="cls-5" x="992.54" y="352.39" width="5.57" height="12.42"/><rect class="cls-5" x="1009.86" y="371.39" width="387.15" height="12.11" rx="5.88"/><path class="cls-5" d="M1044.15,1043.25l-48.56,14.81-70.46,21.49-1.47.45H900.47L785.4,1026.85l-.19-.38c-5.49-11.26,3-21.1,3-21.1l127.5-13.14Z"/><path class="cls-5" d="M908.17,1067.38s-103.66-47.38-120-62"/><path class="cls-3" d="M1044.15,1065.55l-35.5,5-21.46,3.05h0L942.35,1080H906.54c-1.41-4.39-.49-10.84,1.63-12.62,3.84-3.21,39.32-9.45,73.08-14.78h0c32.24-5.08,62.89-9.35,62.89-9.35C1025.94,1056.91,1044.15,1065.55,1044.15,1065.55Z"/></g><g id="Man"><g id="upper_hand" data-name="upper hand"><path class="cls-13" d="M1495.89,834.68c-15.45,19.44-53.54,97.62-23.84,120.53,41.07,31.67,88.58-55.86,97.29-81.35Z"/><path class="cls-14" d="M1491.59,831.45s5.79,4.46,15,10.63c16.67,11.19,44.52,27.93,69.22,33.42,0,0,2.55-5.09,6.43-12.78l8.68-17.19c5.23-10.39,11-21.93,16-31.82l5.77-11.57c1.06-2.13,2-4.06,2.84-5.74,14.46-29.31,30.64-98.35-16.87-102.94h0a74.44,74.44,0,0,0-12.22-.25h-.2c-1.12.09-2.2.2-3.27.34l-.91.13-1.59.29c-.63.11-1.26.25-1.8.4s-1,.23-1.45.38l-.67.16-1.37.45a11.68,11.68,0,0,0-1.29.47,8.65,8.65,0,0,0-1.28.49,14.72,14.72,0,0,0-1.46.65c-.44.18-.87.39-1.29.61h0c-.56.27-1.11.56-1.62.87s-.93.53-1.36.8l-1.12.74a40.37,40.37,0,0,0-3.8,2.84c-.52.43-1,.85-1.52,1.32a63.3,63.3,0,0,0-4.68,4.73c-.49.56-1,1.14-1.48,1.81s-.76.92-1.14,1.39c-.61.76-1.23,1.56-1.81,2.39-.41.52-.81,1.08-1.21,1.64-.61.85-1.23,1.81-1.81,2.64s-1,1.39-1.42,2.15l-1.49,2.35c-.5.8-1,1.61-1.5,2.46-1.15,1.9-2.29,3.91-3.45,6-.36.68-.76,1.39-1.14,2.09s-1,1.92-1.55,2.91-1,1.81-1.5,2.86-1.14,2.19-1.72,3.33c-1.19,2.35-2.39,4.71-3.62,7.1-13.63,27.24-27.55,56.71-34.51,71.62C1493.29,827.76,1491.59,831.45,1491.59,831.45Z"/><path class="cls-15" d="M1530.69,750a51,51,0,0,1,35.09,15.77,53.56,53.56,0,0,1,3.62,4.19,109,109,0,0,0,43.24,32.21c1.06-2.13,2-4.06,2.84-5.74,14.46-29.31,30.64-98.35-16.87-102.94h0a74.44,74.44,0,0,0-12.22-.25h-.2c-1.12.09-2.2.2-3.27.34l-.91.13-1.59.29c-.63.11-1.26.25-1.8.4s-1,.23-1.45.38l-.67.16-1.37.45a11.68,11.68,0,0,0-1.29.47,8.65,8.65,0,0,0-1.28.49,14.72,14.72,0,0,0-1.46.65c-.44.18-.87.39-1.29.61h0c-.56.27-1.11.56-1.62.87s-.93.53-1.36.8l-1.12.74a40.37,40.37,0,0,0-3.8,2.84c-.52.43-1,.85-1.52,1.32a63.3,63.3,0,0,0-4.68,4.73c-.49.56-1,1.14-1.48,1.81s-.76.92-1.14,1.39c-.61.76-1.23,1.56-1.81,2.39-.41.52-.81,1.08-1.21,1.64-.61.85-1.23,1.81-1.81,2.64s-1,1.39-1.42,2.15l-1.49,2.35c-.5.8-1,1.61-1.5,2.46-1.15,1.9-2.29,3.91-3.45,6-.36.68-.76,1.39-1.14,2.09s-1,1.92-1.55,2.91-1,1.81-1.5,2.86-1.14,2.19-1.72,3.33C1533.06,745.22,1531.87,747.59,1530.69,750Z"/><path class="cls-16" d="M1506.56,842.08c16.67,11.19,44.52,27.93,69.22,33.42,0,0,2.55-5.09,6.43-12.78l8.68-17.19c5.23-10.39,11-21.93,16-31.82l-28.24-27.46c-1.1-.41-22.7.69-16,18.81s18.44,30.24,8.84,37.6-37.33-52-61.79-8A33,33,0,0,0,1506.56,842.08Z"/></g><g id="body"><path class="cls-14" d="M1562.73,737.84a21.17,21.17,0,0,0,.14,2.95c.31,5,.87,10.7,1.63,17.06.27,2.41.7,5,1.28,7.89.67,3.45,1.54,7.23,2.53,11.19,3.17,12.43,7.85,27.28,13.36,43.11.65,1.81,1.32,3.8,2,5.7,1.21,3.45,2.47,6.92,3.74,10.41q1.69,4.67,3.47,9.38c13.52,36.16,29.09,73.47,38.85,96.32q32.87,1.71,63.78,3.81,10.85.71,21.51,1.49,15,1.11,29.47,2.27c24.62,2,47.9,4.18,69.65,6.49-4-19.47-14.68-71-27.28-124.91-6.94-29.65-14.46-60-21.69-86.07-5.12-18.35-10.13-34.57-14.7-47-4.77-12.82-9-21.55-12.65-24.32-12.55-9.58-23.36-12.65-36.9-11-1.48.2-3,.43-4.54.72s-3.13.65-4.75,1c-.6.13-1.2.29-1.81.45l-1.93.55-2.05.58q-4.81,1.44-10.25,3.38l-2.24.79c-1.81.65-3.61,1.34-5.57,2.08-3.61,1.36-7.44,2.87-11.53,4.48-10.21,4.07-23.66,9.53-52.17,15.53-1.9.38-3.73.8-5.43,1.2h0l-1.51.34-1.47.36c-.72.16-1.46.36-2.15.54s-1.39.36-2.06.55c-1.36.36-2.66.72-3.91,1.12-2,.63-3.88,1.28-5.64,2l-1.64.69c-1,.49-2,1-3,1.48l-1.22.69a27.29,27.29,0,0,0-5.25,4l-.3.3-.44.47-.58.65c-.57.68-1.11,1.39-1.61,2.12-.27.42-.52.81-.77,1.26s-.4.69-.58,1.07l-.25.51a33.81,33.81,0,0,0-2.9,9.94,9,9,0,0,1-.2,1.39,5.83,5.83,0,0,1-.1.92,9.16,9.16,0,0,0-.15,1.56c0,.52-.09,1.16-.11,1.81v2.73A49.21,49.21,0,0,0,1562.73,737.84Z"/><path class="cls-17" d="M1629.74,941.85c-9.76-22.85-25.31-60.11-38.85-96.32q-1.8-4.71-3.47-9.38c-1.27-3.49-2.53-7-3.74-10.41-.69-1.9-1.36-3.82-2-5.7-5.42-15.83-10.19-30.73-13.36-43.11"/><path class="cls-15" d="M1564.5,757.85c.27,2.41.7,5,1.28,7.89a53.56,53.56,0,0,1,3.62,4.19,109,109,0,0,0,43.24,32.21c26.17,10.36,56.78,7.8,76.56-32.72,3.49-7.23,6.9-13.7,10.21-19.65,17.79-31.76,33.61-47,51-51.81-4.77-12.81-9-21.55-12.65-24.31-12.55-9.58-23.36-12.66-36.9-11-1.48.2-3,.43-4.53.72s-3.13.65-4.76,1c-.59.13-1.19.29-1.81.45s-1.28.36-1.93.54l-2,.58q-4.83,1.46-10.25,3.38l-2.24.8c-1.81.65-3.62,1.34-5.57,2.08-1.5.57-3.08,1.15-4.67,1.8-1.06.4-2.11.82-3.21,1.27l-3.62,1.43c-10.21,4.07-23.66,9.52-52.17,15.53-1.9.38-3.73.79-5.43,1.19h0C1565.22,701.07,1558.66,709.42,1564.5,757.85Z"/><path class="cls-18" d="M1586.34,693.21c5.8,17.9,20.3,36.43,42.44,33.06,24.17-3.61,39.07-28.58,39-54-3.62,1.35-7.45,2.87-11.53,4.48-10.22,4.07-23.67,9.53-52.18,15.53-1.89.38-3.72.79-5.42,1.19h0A74,74,0,0,0,1586.34,693.21Z"/><path class="cls-16" d="M1678.62,924.55c9.53,7.59,35.38,18.08,65.88,24.87,24.62,2,47.9,4.18,69.65,6.49-4-19.47-14.68-71-27.28-124.91-6.94-29.65-14.46-60-21.69-86.07-53.22,7.48-67.41,63.83-43.24,82.89,27.11,21.44,30.1,39.24-4.23,38.77S1651.79,903.2,1678.62,924.55Z"/><path class="cls-13" d="M1593.77,624.62c.25,2.57.52,5,.75,7.34,2.14,20.86,3.1,33.68,3.24,45.45,0,6.22,0,12.15-.43,18.82,0,0,8.46,27.76,38.59,16.27,21.26-8.14,20.29-35.71,20.29-35.71a296.13,296.13,0,0,1-12.35-60.61C1643.14,605.86,1589.86,587.27,1593.77,624.62Z"/><path class="cls-19" d="M1594.52,632c2.14,20.86,3.1,33.68,3.24,45.45,17.28,5.24,35.29-14.95,25.31-37.11C1615.84,624.59,1602.89,627.7,1594.52,632Z"/><path class="cls-18" d="M1491.59,831.45s45.92,35.52,84.19,44c0,0,2.55-5.09,6.43-12.78-31.45-10.84-64.39-26.66-86-41.12C1493.29,827.76,1491.59,831.45,1491.59,831.45Z"/></g><g id="head"><path class="cls-13" d="M1582,652.33c10.12,13.18,28.11,10.11,56.15-18.34,10.61-10.85,22.85-28.33,22.52-42.16s-17.06-43-48.81-26.23c-12.25,6.47-21,18.94-26.59,32.54a102.28,102.28,0,0,0-5,16C1576.52,630.75,1577.26,646.21,1582,652.33Z"/><path class="cls-20" d="M1616.67,613.21c1.72,4.29,8.79,5.52,15.8,2.73s11.33-8.53,9.62-12.81-8.77-5.53-15.8-2.75S1615,608.91,1616.67,613.21Z"/><path class="cls-20" d="M1580.28,614.14c4.41,1.62,8.62,1.17,10.57-1.45,2.7-3.61.2-10.07-5.56-14.59A102.1,102.1,0,0,0,1580.28,614.14Z"/><circle class="cls-21" cx="1587.44" cy="589.3" r="12.69"/><path class="cls-22" d="M1615.71,596.06a2.64,2.64,0,1,1-2.66-2.62h0A2.64,2.64,0,0,1,1615.71,596.06Z"/><path class="cls-22" d="M1597.33,591.94a2.64,2.64,0,1,1-2.64-2.64h0A2.64,2.64,0,0,1,1597.33,591.94Z"/><path class="cls-13" d="M1635.47,632.11c6.47,3.72,16.52,3.72,20-6.58s-6.41-15.48-12-14.47C1636.54,612.33,1632.7,622.45,1635.47,632.11Z"/><path class="cls-23" d="M1638.92,622.67c3.15-6,10.25-7.23,13.27.85"/><path class="cls-23" d="M1640.68,620.21c7.68-3.45,9.22,9.65.36,6.35"/><path class="cls-24" d="M1589.26,589.68a66.74,66.74,0,0,1,12-16.27c7.79,4.37,13,.38,13,.38s7.59,8.11,14.67,6.14,6.57-6.9,11-8,8.77,3.61,8.77,5-2.31,2.2-6.56,12.27-3,24.19,5.69,25.78c2.77.51,16.6-1.39,23.5-11.82a4,4,0,0,0,.38-.54c6.75-10.94,2.8-18.8.51-21.7s-5.89-1.61-6.4-4.35c-2.93-15.64-17.34-29.09-32.78-30.54s-14.95,4.18-14.95,4.18-15.42-1.18-23.79,9.47c-.5.64-1,1.27-1.39,1.9A31.21,31.21,0,0,0,1589.26,589.68Z"/><path class="cls-25" d="M1589.26,589.68a66.74,66.74,0,0,1,12-16.27c7.79,4.37,13,.38,13,.38s7.59,8.11,14.67,6.14,6.57-6.9,11-8,8.77,3.61,8.77,5-2.31,2.2-6.56,12.27-3,24.19,5.69,25.78c2.77.51,16.6-1.39,23.5-11.82-18.07-3.36-18.67-13-14.8-28.45,2.53-10.2-16.27-19.75-26.78-13.26-6.54,4.07-24.51,2.79-36.84.13A31.21,31.21,0,0,0,1589.26,589.68Z"/><path class="cls-26" d="M1618.1,550.18a46.88,46.88,0,0,1,18.18,3.61"/><path class="cls-26" d="M1616.15,561.17c-2.86.51-11.86,8.26-14.9,12.26,0,0-5,3.61-7.48-1.52"/><path class="cls-26" d="M1632.65,565.76c-2.51-2.2-7.41-1.59-10.85,2.17a33.72,33.72,0,0,1-7.46,5.88"/><path class="cls-23" d="M1607.74,583.4c.81,9-2,13.29-5.91,13.53s-9,1.53-8.06,7.63"/><path class="cls-27" d="M1612.22,616.13a86.94,86.94,0,0,1-16.27,1.24s1.81,6.94,8.52,6.15A9,9,0,0,0,1612.22,616.13Z"/><path class="cls-21" d="M1630,598.77a12.66,12.66,0,1,1-12.66-12.65A12.66,12.66,0,0,1,1630,598.77Z"/><path class="cls-24" d="M1605.79,578.13c.23,4.52-12.44,3.61-12.55,1.66S1605.55,573.82,1605.79,578.13Z"/><path class="cls-24" d="M1627,588.72c-1.3,2.6-13.74-4.12-10.84-8.82S1628.76,585.21,1627,588.72Z"/><path class="cls-23" d="M1635.47,632.11a16.2,16.2,0,0,0,10.68,2"/></g><g id="upper_hand-2" data-name="upper hand-2"><path class="cls-13" d="M1712.3,773c16,23.2,29,46.61,40.8,68.15,29.05,53.17,45.67,91.86,81.48,91.39,32.66-.45,36.15-48.45-1.94-126.55l9.62-9s-28-40.81-54.94-81.81c-24.33-37-45.62-63.84-86.44-52.63C1676.78,669.29,1684,731.64,1712.3,773Z"/><path class="cls-14" d="M1699.41,749.72A149.37,149.37,0,0,0,1712.3,773c12.66,18.33,23.41,36.79,33.19,54.36,2.62,4.66,5.15,9.27,7.61,13.79a330.53,330.53,0,0,0,33.77-10c17-6.31,34-14.46,45.9-25l9.62-8.95s-3.08-4.46-8.14-11.89c-10.25-15.1-28.76-42.47-46.8-69.93-4.16-6.34-8.24-12.38-12.35-18-19.88-27.12-40.27-43.93-74.12-34.64h0C1680.92,668.24,1682.42,711.59,1699.41,749.72Z"/><path class="cls-18" d="M1745.49,827.45q3.93,7,7.61,13.8c25-6.19,59.66-17.36,79.54-35.15l9.62-8.94s-3.07-4.47-8.13-11.9C1819.28,801.37,1799.4,811.62,1745.49,827.45Z"/><path class="cls-15" d="M1699.41,749.72c17.79-31.76,33.61-47,51-51.81a55.49,55.49,0,0,1,24.59-.69c-19.89-27.11-40.28-43.93-74.12-34.64h0C1680.92,668.24,1682.42,711.59,1699.41,749.72Z"/><path class="cls-17" d="M1699.3,749.5a147.47,147.47,0,0,0,13,23.5c16,23.2,29,46.61,40.8,68.16"/><path class="cls-17" d="M1701.51,717.61c-3.62,12.93-9.35,18.93,2.44,41.58"/></g><g id="hand"><path class="cls-13" d="M1856.18,897.2c-13.86-33.43-64.64-34.53-126-12.17s-128.74,44.76-139,47.53-8.3,37.56,17.41,35.63,122.93,6.49,179.82-4.09S1865.31,919.05,1856.18,897.2Z"/><path class="cls-23" d="M1827.58,873.1c-16.27-4.81-37.64-4.1-62.06,1.41"/></g><g id="hand-2"><path class="cls-13" d="M1445,933.59c-27.12-39-41.11-192.86-41.11-192.86s-27.21-12.65-31.73-15.7-13.3-18.35-14.82-22.93c0,0-7.63-4.66-7.39-7.23s3-2.57,3-2.57-1.8-5.83,8-4.19a4.07,4.07,0,0,1,4.07-1.52c2.92.35,37.78,10.72,37.78,10.72s-14.23-9.9-14.46-13.86,4.57-2.43,7.84-.46a85,85,0,0,0,21.19,8.88c3.49,1,14.46,9.8,24.37,28.8s68,144.1,74.39,161C1536.91,937.33,1490.09,998.25,1445,933.59Z"/><path class="cls-23" d="M1495.3,834.56c10.26,22.7,18.67,41.36,20.86,47.13"/><path class="cls-23" d="M1372.11,725c-4.53-3-13.3-18.35-14.82-22.93,0,0-7.63-4.66-7.39-7.23s3-2.57,3-2.57-1.8-5.83,8-4.19a4.07,4.07,0,0,1,4.07-1.52c2.92.35,37.78,10.72,37.78,10.72s-14.23-9.9-14.46-13.86,4.57-2.43,7.84-.46a85,85,0,0,0,21.19,8.88"/><path class="cls-23" d="M1402.83,697.29l5.42,3.73s-4.45,9.89,6.49,18.08"/><line class="cls-23" x1="1393.36" y1="703.02" x2="1360.98" y2="688.11"/><path class="cls-23" d="M1381,714c-.27-.18-9.82-4.68-9.82-4.68s-9.81-15.29-12.42-16.07-5.58.49-1.48,8.89"/><line class="cls-23" x1="1388.06" y1="708.21" x2="1359.91" y2="693.99"/><line class="cls-23" x1="1352.93" y1="692.3" x2="1356.57" y2="693.19"/></g><g id="laptop"><path class="cls-5" d="M1463.23,884.69c16,48,43.87,116.69,43.87,116.69l186.36,42.28,129.11-30.58v-9.42L1675,972.53c-10.63-26.94-24.19-78.23-30.89-79.54-11-2.17-164.42-26.07-176-26.38C1457.12,866.3,1459.76,874.26,1463.23,884.69Z"/><line class="cls-9" x1="1674.97" y1="972.53" x2="1695.14" y2="1025.78"/><polygon class="cls-2" points="1693.17 1033.3 1693.46 1043.66 1822.58 1013.08 1822.58 1003.66 1693.17 1033.3"/></g></g><g id="Girl_Mid" data-name="Girl Mid"><g id="body-2"><path class="cls-28" d="M992.74,851.08q.21,2.48.39,4.86c4.67,52.43,9.82,79.35,12.82,91.71l6-.47q12.87-1,25.93-1.9c50.09-3.49,101.56-6,153.37-7.68q22.24-.72,44.61-1.25c-10.84-22.56-24.37-64.14-35.54-101.23h0c-1.5-5.1-3-10.09-4.41-15q-1.8-6.07-3.43-11.79c-.15-.54-.31-1.08-.47-1.63s-.38-1.37-.6-2.06c-.49-1.7-1-3.41-1.45-5.13-.25-.8-.47-1.59-.68-2.39-.36-1.24-.71-2.49-1-3.72s-.62-2.13-.91-3.16c-.45-1.61-.88-3.2-1.32-4.72-.25-1-.54-1.94-.77-2.86l-1.81-6.27c-.22-.72-.38-1.39-.54-2-.36-1.25-.64-2.28-.87-3a1.83,1.83,0,0,0-.13-.5c0-.15-.09-.33-.12-.47a1,1,0,0,1,0-.24V770c-.17-.63-.33-1.21-.47-1.81l-.65-2.4-1.5-5.55a20.51,20.51,0,0,0,10.08,1.3c15.66-1.18,38.63-13.13,41.38-28.93.06-.31.1-.62.13-.94a13.64,13.64,0,0,0,.14-1.8,21.41,21.41,0,0,0-4.86-13.58c-18.62-24.75-30.84-33.46-43-37.76-1.47-.49-2.89-.94-4.36-1.36h0c-13.76-3.78-55.93-6.69-55.93-6.69-5.08-7.23-15-31.42-20.12-55.23-5.84-27.42-27.7-31.58-39.3-16.27-4.36,5.73-7.23,14.18-7.4,25.13-.12,13.63-.34,30.25-.47,40.21-.09,5.42-.14,8.8-.14,8.8s-20.52-7.72-53.37-8.19c-7-.09-13.77,1.56-18.82,6.18-7.44,6.84-14.46,20.56-20.78,37.19-15.08,39.66-26.16,95.81-29.78,116.13C927.71,852.45,992.74,851.08,992.74,851.08Z"/><path class="cls-29" d="M979.14,813.86a93.92,93.92,0,0,0,48.81-2c16.89,7.57,78.93,19.23,120.45,15.26s43.3-18.59,43.3-18.59h0l.85-.2c-5-17.26-10.85-38.43-10.85-38.43s-2.56.52-7.23,1.27A339.75,339.75,0,0,1,1053.88,767s-32.54,9.18-65,2.38Z"/><path class="cls-29" d="M975.63,829.86s56.21,7.95,104.86,15.65,99.42,3.62,119.8-10.41l-4.43-15c-18.23,15.82-44,19.76-90.81,17.77s-76.43-16-76.43-16c-24.26,6.45-42.54,3.61-51.56,1.15Z"/><path class="cls-30" d="M962.18,708.3c25.44-1.93,56.17,10.2,81.73,33C1066,761,1108.76,786,1141,754a77.72,77.72,0,0,1,22.47-15.37c19.26-8.75,42.94-11.35,67.34-8.75a21.38,21.38,0,0,0-4.86-13.57c-18.62-24.75-30.84-33.46-43-37.77-1.47-.48-2.9-.94-4.36-1.35h0c-13.76-3.78-55.93-6.69-55.93-6.69-5.08-7.23-15-31.42-20.12-55.23-5.84-27.42-27.7-31.58-39.3-16.27-4.36,5.73-7.23,14.17-7.4,25.13-.12,13.63-.34,30.24-.47,40.2-.09,5.43-.14,8.81-.14,8.81s-20.52-7.72-53.37-8.19c-7-.09-13.77,1.55-18.82,6.18C975.53,678,968.51,691.67,962.18,708.3Z"/><path class="cls-31" d="M993.13,855.94c4.67,52.43,9.82,79.35,12.82,91.71l6-.47q12.87-1,25.93-1.9c50.09-3.49,101.56-6,153.37-7.68-18.75-19.7-52.88-27.6-74.9-16.47-24.71,12.49-65.08.76-54.45-29.21,6.31-17.77,2.35-39-33.21-53.93Z"/><path class="cls-32" d="M983,671.12c10.58,1.68,24.59,7.5,41.75,13.92,6,2.26,12.43,4.59,19.19,6.83a256.9,256.9,0,0,0,67.85,13.56,194.92,194.92,0,0,0,26-.2,85.7,85.7,0,0,0,19.58-3.62c13.61-4.41,21.2-12.2,25.53-23-1.47-.49-2.92-.94-4.38-1.36-6.2-1.7-18.22-3.22-29.5-4.39-7.14-.76-14-1.34-19-1.72-4.55-.38-7.46-.58-7.46-.58-5.08-7.23-15-31.42-20.12-55.23-5.84-27.42-27.7-31.58-39.3-16.27-4.36,5.73-7.23,14.18-7.4,25.13-.12,13.63-.34,30.25-.47,40.21-.09,5.42-.14,8.8-.14,8.8a114.39,114.39,0,0,0-15-4c-4.91-1.05-11-2.08-18-2.87a202,202,0,0,0-20.43-1.27A31.28,31.28,0,0,0,983,671.12Z"/><path class="cls-33" d="M1055.3,664.32c17.38-1,32.18-15.11,28.51-33.05-4.1-20-11.91-29.57-20.64-32.28-4.36,5.73-7.23,14.17-7.4,25.13C1055.65,637.75,1055.43,654.36,1055.3,664.32Z"/><path class="cls-14" d="M1022.22,666.2A105.81,105.81,0,0,1,1024.7,685c6,2.26,12.44,4.59,19.2,6.83a92.88,92.88,0,0,0-3.75-22.8C1035.26,668,1029.22,667,1022.22,666.2Z"/><path class="cls-14" d="M1130.05,671.08a170.11,170.11,0,0,1,7.74,34.15,85.7,85.7,0,0,0,19.58-3.62,159.17,159.17,0,0,0-8.35-28.79C1141.88,672,1135,671.46,1130.05,671.08Z"/></g><g id="upper_hand-3" data-name="upper hand-3"><path class="cls-28" d="M966.67,889c1.91,18.55,5.42,37,11.51,49.88h0c3.76,7.94,8.52,13.74,14.56,16.16,12.13,4.9,22.56,3.62,30.87-1h0c14.9-8.23,23-26.94,21.7-39.07a15.85,15.85,0,0,0-.18-1.81c-.15-1.8-.28-3.74-.4-5.91a11.16,11.16,0,0,0-.15-2.2V903c0-1-.11-2-.14-3.07s0-1.63-.11-2.48v-.87c0-.84,0-1.71-.11-2.6a21.63,21.63,0,0,0-.12-2.76c0-2.07-.15-4.14-.22-6.31s-.13-3.85-.2-5.82v-2.54c-.16-4.57-.29-9.32-.43-14.15q-.13-4.56-.29-9.2l-.11-3.82-.16-5.22-.11-3.62c0-2.09-.17-4.15-.22-6.22-.11-3-.22-5.94-.33-8.85,0-1.92-.16-3.82-.23-5.7-.15-3.52-.31-6.9-.47-10.18l-76.47,10.65A516.64,516.64,0,0,0,966.67,889Z"/><path class="cls-34" d="M1041.2,809.38c1.81,34.74,2.37,86.77,4.21,105.61"/><path class="cls-31" d="M966.67,889c1.91,18.55,5.42,37,11.51,49.88h0c3.76,7.94,8.52,13.74,14.56,16.16,12.13,4.9,22.56,3.62,30.87-1a53.63,53.63,0,0,0-13.46-4c-20.31-3.45-13.91-28.42-22.73-45.75C983.86,897.41,977.84,891.68,966.67,889Z"/></g><g id="hand-3"><path class="cls-29" d="M1154.68,992.23c5.17,4.52,8.58,23.5-3.87,38.65s-24.64,5.43-24.64,5.43-17.86-15.39-5.43-38.28S1154.68,992.23,1154.68,992.23Z"/><path class="cls-32" d="M1127.6,988.58c13.08,6.31,22.39,10.56,24.74,10.39s24.28,2.54,30.59,4.43,20.65,17,19.24,19.22-7,1.81-7,1.81,21.7,15.92,23.81,21.69-4.43,4.41-4.43,4.41c3.38,1.81,8,11.46-3.77,7.88,2.83,1.81,4.55,7.14-3.48,5.21-11.66-2.84-30.73-10.72-30.73-10.72s13.25,9.93,18.6,12.46,5.68,8.35-5.83,5-33.88-18.91-41.58-24.44-15.13-10.23-16.87-11.34-18.29-8.67-18.29-8.67S1096.56,985.43,1127.6,988.58Z"/><path class="cls-35" d="M1195.22,1024.5c-8-5.68-19.23-14-21.6-14.23"/><path class="cls-35" d="M1214.51,1050.68c-.32-.89-32.43-21.5-32.43-21.5"/><path class="cls-35" d="M1210.9,1058.56c-.16-1-32.9-17.5-32.9-17.5"/><path class="cls-35" d="M1182.93,1003.4c6.31,1.81,20.65,17,19.24,19.22s-7,1.81-7,1.81,21.7,15.92,23.81,21.69-4.43,4.41-4.43,4.41c3.38,1.81,8,11.46-3.77,7.88,2.83,1.81,4.55,7.14-3.48,5.21-11.66-2.84-30.73-10.72-30.73-10.72s13.25,9.93,18.6,12.46,5.68,8.35-5.83,5a50.71,50.71,0,0,1-8.14-3.36"/><path class="cls-28" d="M978.18,938.92h0c3,13.7,36.61,36.41,71.05,56.46,37.42,21.69,75.8,40.4,76.94,40.94-8.17-13-6.46-48.28,28.49-44.14,0,0-91.85-65.08-109.12-79.18a2.78,2.78,0,0,0-.34-.26c-19.67-15.83-44.13-18.72-57.85-8.4C978.94,910.77,974.62,922.27,978.18,938.92Z"/><path class="cls-31" d="M978.18,938.92h0c3,13.7,36.61,36.41,71.05,56.46-4.29-19.89-9.94-34.13-25.58-41.29h0a53.7,53.7,0,0,0-13.47-4c-20.3-3.45-13.9-28.42-22.72-45.75C978.94,910.77,974.62,922.27,978.18,938.92Z"/><path class="cls-34" d="M1075.82,935.68c-13.72-10-25.22-18.52-30.3-22.65a67.31,67.31,0,0,0-24.89-12.94"/></g><g id="upper_hand-4" data-name="upper hand-4"><path class="cls-28" d="M1163.44,738.57a300.7,300.7,0,0,0,11,32.63,407.75,407.75,0,0,0,17.17,37.36h0q2.27,4.4,4.68,8.77h0c.24.45.49.92.76,1.37,2,3.73,4.19,7.45,6.38,11.14q8.89,15,17,27.53a329.46,329.46,0,0,0,27.35,37.1c18.33,21,34.35,30.08,50,27.11a36.8,36.8,0,0,0,8.72-2.85,24.5,24.5,0,0,0,13-14.46h0a36.87,36.87,0,0,0,2-9h0c1.17-12.21-2.15-27.93-9.33-45.92a270.32,270.32,0,0,0-14.07-29.39c-1.51-2.75-3.09-5.43-4.7-8.28-5.2-8.9-11.08-18.08-17.53-27.41-.67-.94-1.3-1.81-1.94-2.8q-3.2-4.62-6.21-9l-6.17-9c-.47-.69-.92-1.37-1.39-2-7.38-10.85-14.06-20.85-20.32-29.81l-.29-.44-3.61-5.08c-20.85-29.28-37-46.6-57.46-48.81h0C1156.32,674.86,1153.52,701.54,1163.44,738.57Z"/><path class="cls-30" d="M1163.44,738.57c21.55-9.87,48.65-11.85,76.15-7.51L1236,726c-20.84-29.28-37-46.6-57.45-48.81h0C1156.32,674.86,1153.52,701.54,1163.44,738.57Z"/><path class="cls-34" d="M1179.06,760.22c-5.78-22.72-6.83-31.25-6.83-31.25"/><path class="cls-29" d="M1174.44,771.2a407.75,407.75,0,0,0,17.17,37.36h0s44.6-5.58,68.57-47.25c-7.38-10.85-14.07-20.85-20.32-29.81C1232.77,742.87,1215,762.83,1174.44,771.2Z"/><path class="cls-34" d="M1192.48,808.36c-5-17.26-9-31.76-11.27-40.18l-.65-2.41c-1-3.61-1.5-5.55-1.5-5.55"/><path class="cls-29" d="M1196.31,817.33h0l.76,1.34,6.38,11.13s53.62-10.59,70.5-48.37q-3.2-4.62-6.22-9C1243.35,811.06,1196.31,817.33,1196.31,817.33Z"/></g><g id="hand-4"><path class="cls-28" d="M1231.61,831.34s2.77,22.4,14.11,57.23c.65,2,1.35,4,2.13,5.92,9,22.94,25.16,40,41.11,45.88a30.6,30.6,0,0,0,17.55,1.5c21.55-5,31.22-22.64,25.4-53.3-2.6-13.73-9.76-27-19.7-39.21a167.8,167.8,0,0,0-18.62-19.27,237.24,237.24,0,0,0-27.12-20.64Z"/><path class="cls-31" d="M1289,940.37a30.6,30.6,0,0,0,17.55,1.5c21.55-5,31.22-22.64,25.4-53.3-2.6-13.73-9.76-27-19.7-39.21a167.8,167.8,0,0,0-18.62-19.27,32.74,32.74,0,0,0,7,32.16c9.67,10.85,19.7,23,20.91,33h0a12.93,12.93,0,0,1-2,9h0a17.56,17.56,0,0,1-6.81,5.75,51.63,51.63,0,0,0-14.88,11.59C1292.75,927.48,1289.45,934.11,1289,940.37Z"/><path class="cls-34" d="M1245.72,888.59c-2.68-8.24-4.89-15.76-6.68-22.49"/><path class="cls-34" d="M1284.87,822.77c23.38,18.62,42.43,41.38,47,65.82"/><path class="cls-29" d="M1273.5,827.82c5.42,9.41,13.14,25.3,6.64,35.63s-20.65,12.65-31.44,2.67-16.27-19.88-17.09-30.59Z"/><path class="cls-32" d="M1257.12,807c2.33-2.84-3.61-6.65-7.93-4a55.14,55.14,0,0,1-14,6.46c-3.61.79-5.89,10-4.23,11.75C1231,821.2,1254.28,810.33,1257.12,807Z"/><path class="cls-35" d="M1235.21,809.38c-3.61.79-5.89,10-4.23,11.75"/><path class="cls-22" d="M1306.33,785.87c4.88-3-.2-11.91-5.1-9.87s-78,49.65-78,49.65l-5.43,9,10.85-1.44S1302.26,788.5,1306.33,785.87Z"/><path class="cls-32" d="M1273.74,814.42c1.15-6.94-8-8.79-12.46-5.55s-20.39,10.61-25.58,12.33-8.44,8.19-5.21,10.45c0,0-3.23,4.61.56,6.72a20,20,0,0,0,5.43,2.39s-1.56,5,10.25,10.16c0,0,1.81,7.23,8.15,9s18.08.41,20.81-1.81,4.08-9,1.41-11.53c0,0,6.78-3.19,5.57-8.18-1.63-6.72-6.26-4.77-4.87-7.43s3.62-7.66.15-9.74S1273.1,818.14,1273.74,814.42Z"/><path class="cls-35" d="M1235.7,821.2c-5.21,1.72-8.44,8.19-5.21,10.45,0,0-3.23,4.61.56,6.72a20,20,0,0,0,5.43,2.39s-1.56,5,10.25,10.16c0,0,1.81,7.23,8.15,9"/><path class="cls-35" d="M1271.73,834.56a124.4,124.4,0,0,1-27.8,6.87,45,45,0,0,1-7.52-.67"/><path class="cls-35" d="M1230.49,831.65s13.2.38,16,0c2.48-.35,21.37-7.81,21.37-7.81"/><path class="cls-35" d="M1268.22,849.36s-13.94,2.81-21.56,1.56"/></g><g id="head-2"><path class="cls-36" d="M1099.38,562.42a50.78,50.78,0,0,0,17.75,18.47c12.56,7.85,23.17,2,27.69-4,1.67-2.24,1.63-8.33.35-15.2-2.19-11.62-7.94-25.54-15-27.12a28.26,28.26,0,0,0-23.79,5.1,16.67,16.67,0,0,0-3,3.06C1098.56,548.75,1098.42,549.06,1099.38,562.42Z"/><path class="cls-37" d="M1099.38,562.42a50.78,50.78,0,0,0,17.75,18.47c12.56,7.85,23.17,2,27.69-4,1.67-2.24,1.63-8.33.35-15.2-6.13,10.85-16.92,15.17-21.17,11.7-6-5,3.14-29.18-17.63-33.79a16.94,16.94,0,0,0-3,3.05C1098.56,548.75,1098.42,549.06,1099.38,562.42Z"/><path class="cls-38" d="M1115.09,565.33c-3.47-.91-4.25-8.75-.91-9.26s6,5,5.14,9.26c-.51,2.69-2.55,4.55-8.86,3"/><path class="cls-38" d="M1118.7,573.81c14.16-.33,19.42-3,20.48-9.33s1.7-17,1.7-17"/><path class="cls-38" d="M1126.13,573.32a21.71,21.71,0,0,0,7.23-12.13c1.16-7.23-4.61-16.89-8.51-17.34-6.74-.76-21.7,5-20.5,16.72"/><path class="cls-32" d="M1045.67,640.62c13.52,6.36,38.11,0,52.15-15.26,17.57-19.11,2.5-61.46-17.57-67.46s-30.46,15.24-36.34,32.28l-.1.37a124.54,124.54,0,0,0-3.8,13.66C1036.85,618.64,1035.8,636,1045.67,640.62Z"/><path class="cls-39" d="M1098.4,597c1.07,3.73-4.34,8.55-12.09,10.85s-14.88,1-16-2.77,4.34-8.57,12.08-10.84S1097.33,593.22,1098.4,597Z"/><path class="cls-39" d="M1040,604.21c3.89,1.65,7.34,1.7,9-.2,2.29-2.74,0-8.51-5.15-13.46A124.54,124.54,0,0,0,1040,604.21Z"/><path class="cls-22" d="M1057,586.48a2.64,2.64,0,1,1-2.65-2.62h0A2.63,2.63,0,0,1,1057,586.48Z"/><path class="cls-22" d="M1071.7,590.2a2.64,2.64,0,1,1-2.64-2.64h0a2.62,2.62,0,0,1,2.62,2.62Z"/><path class="cls-33" d="M1078.32,601.48a1.25,1.25,0,1,1-1.25-1.24,1.25,1.25,0,0,1,1.25,1.24Z"/><circle class="cls-33" cx="1072.93" cy="596.44" r="1.25"/><circle class="cls-33" cx="1071.68" cy="600.96" r="1.25"/><path class="cls-33" d="M1068.34,597.69a1.25,1.25,0,1,1-1.25-1.25,1.25,1.25,0,0,1,1.25,1.25Z"/><path class="cls-33" d="M1047.91,593a1.25,1.25,0,1,1-1.25-1.25,1.25,1.25,0,0,1,1.25,1.25Z"/><circle class="cls-33" cx="1051.15" cy="591.16" r="1.25"/><path class="cls-36" d="M1032,589.48c1.52,1.81,3.36,2.71,4.17,1.81,1.59-1.7-3-4.38,0-7.45s10.56-1.25,10.56-1.25c11-28.78,27.7-27.87,37.6-22.92s10.85,13.61,11,18.8.18,7-7.23,11.12-.5,10.66.69,15.82-4.27,3.61-7.23,8.74,3,7.65,2.73,5.43,1.81-5.08,3.92-4.59,6.36-1.09,6.56-3.62,1.81-8.44,4.49-9.31c9.34-3.07,14.21,6,12.92,13a14,14,0,0,1-7.52,9.8s5.42,2.67,14.55-8.5a20.47,20.47,0,0,0,4-8.28c2.65-11.1-2.77-24.68-7.94-32.77-6.56-10.34-9.15-10.85-9.15-10.85a51.18,51.18,0,0,0-13.38-18.19c-9.88-8.84-18.63-1.39-18.63-1.39-9.53-6.65-20.88-4-24.14,2.21s-2,15.89-2.51,19.07-3,8.55-9,8.55-8.37,2.3-8.75,7.85A9.91,9.91,0,0,0,1032,589.48Z"/><path class="cls-37" d="M1032,589.48c1.52,1.81,3.36,2.71,4.17,1.81,1.59-1.7-3-4.38,0-7.45s10.56-1.25,10.56-1.25c11-28.78,27.7-27.87,37.6-22.92s10.85,13.61,11,18.8.18,7-7.23,11.12-.5,10.66.69,15.82-4.27,3.61-7.23,8.74,3,7.65,2.73,5.43,1.81-5.08,3.92-4.59,6.36-1.09,6.56-3.62,1.43-7.47,4.52-8.73c9.53-3.92,13.72,5.42,12.44,12.42a13.75,13.75,0,0,1-8.06,9.67s4.73,5.06,15.54-8.37a20.73,20.73,0,0,0,4-8.28c-9.33-8.51-8.86-17.1-15.1-19-7.63-2.28-6.63-17.45-15.42-32.27s-23.63-4.32-27.3-.81c0,0-10.61-5.43-13.77,8.42s-10.29,16-15.1,15.49C1033.74,579.66,1031.37,584.62,1032,589.48Z"/><path class="cls-38" d="M1099.38,592.73c-3.49.55-5.23,5.73-3.33,13.58"/><path class="cls-38" d="M1094.5,569.05c-5-14.26-7.34-15.35-8.84-16.27-2.73-1.64-8.84.16-8.84.16"/><path class="cls-38" d="M1074.18,544.88a94.55,94.55,0,0,0-8.66,8.44"/><path class="cls-38" d="M1112.09,608.71c5-7.37,10-23.66,1-36.88"/><path class="cls-38" d="M1107.1,602.49c3.61-7.46,6.43-21.82-.91-38"/><path class="cls-35" d="M1061.16,580c2.26,8.43-1.07,11.84-5,12.87s-7.12,3.06-6.67,6.57"/><path class="cls-36" d="M1083.7,583.4c-1.8,1.81-12.65-5.27-9.87-9.45S1086.34,580.87,1083.7,583.4Z"/><path class="cls-36" d="M1063.94,571.4c0,4.25-10.84,2-10.64.56C1053.62,569.45,1064,567.51,1063.94,571.4Z"/><path class="cls-35" d="M1064.25,605.73a12.16,12.16,0,0,1-12.53,2.71"/><path class="cls-32" d="M1092.81,614.14v10.48a17.79,17.79,0,0,0,10.85.15h.18a12.85,12.85,0,0,0,8.64-11.77,11,11,0,0,0-3.74-9h0a9.68,9.68,0,0,0-2.87-1.7,9.56,9.56,0,0,0-6.51.6c-3.07,1.26-4.3,6.11-4.52,8.73A3.6,3.6,0,0,1,1092.81,614.14Z"/><path class="cls-35" d="M1108.23,611.77c-1.06-2.73-8.15-5.77-11.49,1.68"/><path class="cls-35" d="M1097.28,612.33c7.75-4.5,11,7,.9,6.33"/><path class="cls-35" d="M1092.81,624.59a17.16,17.16,0,0,0,12.22-.37"/></g></g><g id="Girl_L" data-name="Girl L"><g id="hair"><path class="cls-40" d="M709.62,670.79c1.32,8.41,7.11,15.82,14.83,21,14.76,10.07,36.69,12.24,48.14-1.33,14.3-16.94,50.22-96.63,62.74-124.87,2.73-6.2,4.36-9.94,4.36-9.94-1.05-37.33-28.72-53.49-56.46-52.21s-46.64,21-48.1,50.73,10.5,73.45,2.26,82.51S705.75,646.24,709.62,670.79Z"/><path class="cls-41" d="M719.6,679.42a39.87,39.87,0,0,0,4.85,12.41c14.76,10.07,36.69,12.24,48.14-1.33,14.3-16.94,50.22-96.63,62.74-124.87-8.71-40.58-30.08-53.2-53.92-49.26-24.17,4-34.53,36.61-26.85,50.86s27.26,42.3,17.28,60S763.6,648.23,752,651,716,659.58,719.6,679.42Z"/><path class="cls-42" d="M830.53,549.26c-4.72-25.76-28.93-30.47-39.56-28"/><path class="cls-42" d="M812.79,546c-13.52-11.41-33.14-7.56-33,2.24s.87,17.12-4.77,21.09-14,12.42-9.28,24.3"/><path class="cls-42" d="M754,606.6c3.61,21.28,5.86,31.71-3.74,34.64s-12.8,6.12-10.72,10.72,4.73,6.52-1.54,8.89-6.82,10.3-6.82,10.3"/></g><g id="upper_hand-5" data-name="upper hand-5"><path class="cls-31" d="M820,804.62c11.12,55.26,30.35,112.86,49.64,140.12,5.55,7.83,11.06,13.16,16.41,15.22,46.64,18.08,65.66-3.72,60.33-69.45-3.07-38-23.3-107.53-50.62-158.09-19.58-36.16-42.77-62.55-66-60.56h0C805,674,806.5,737.63,820,804.62Z"/><path class="cls-28" d="M820,804.62a39.41,39.41,0,0,0,23.95-22.85,103.22,103.22,0,0,1,10.23-19.88c10-15,24-26.34,41.58-29.56-19.58-36.16-42.77-62.55-66-60.56h0C805,674,806.5,737.63,820,804.62Z"/><path class="cls-43" d="M854.12,767c22.5,2.6,27.33,9.54,24.65,25.22s29.72-1.32,38.46,17.19-34.17,87.64-35,88l-13.1,6.69-24.84-28.93-16.53-40.57-.27-37.11Z"/></g><g id="body-3"><path class="cls-31" d="M655.42,779.69c.37,8.1,3.24,36,6.86,69.46,6.23,57.36,14.71,130.79,16.65,147.58l6.63-1.71c26.92-6.95,56-13.16,87.06-18.77s63.69-10.54,97.86-14.88c-.27-4.86-.56-10.5-.87-16.63-1.56-31.71-3.36-76.54-1.92-94.82,2.33-29.37,3.73-50.36-6.05-69A108.23,108.23,0,0,1,854.12,762c-5-16.58-7.74-35.49-7.42-47.89.4-14.63,8.79-37.15-17-42.23h0a77.68,77.68,0,0,0-20.26-.71c-49.79,3.62-60,0-60,0-32.14-5.73-58.8,1.34-66.25,3.94l-.69.26c-10.85,4-21,19-25.31,50.76A306.48,306.48,0,0,0,655.42,779.69Z"/><path class="cls-43" d="M722,807.33c35.6-16.7,60.18,21.7,58.34,52.1-2.37,38.67,42.79-8.58,62,33.39,15.22,33.36-60.18,63.27-99.84,30.73S674,829.86,722,807.33Z"/><path class="cls-28" d="M657.16,726.11c24.3-3.92,55,7.63,73.54,24.4,7.77,7.06,13.43,15,15.62,23.16,7.41,27.73,46.4,41,73.65,31a39.41,39.41,0,0,0,23.95-22.85,103.22,103.22,0,0,1,10.23-19.88c-5-16.58-7.73-35.49-7.41-47.89.4-14.63,8.79-37.15-17-42.23h0a77.76,77.76,0,0,0-20.27-.71c-49.78,3.62-60,0-60,0-32.14-5.73-58.81,1.34-66.26,3.94l-.68.26C671.69,679.36,661.48,694.37,657.16,726.11Z"/><path class="cls-34" d="M870.48,961.37c-.27-4.86-.56-10.5-.87-16.63-1.56-31.71-3.36-76.54-1.92-94.82,2.33-29.37,3.73-50.36-6.05-69A108.23,108.23,0,0,1,854.12,762a183.94,183.94,0,0,1-6.85-34.55"/><path class="cls-13" d="M758.32,671.15c-.77,5.72,34.64,46.45,49.45,42.7S815,671.68,815,671.68s.9-2.61,2.29-6.44c3.42-9.51,9.67-26.72,12-31.42a90.87,90.87,0,0,0,6.24-16.59c11.28-43-24.91-59.55-44.47-16C771.23,645.14,759.12,665.42,758.32,671.15Z"/><path class="cls-19" d="M817.26,665.24c3.41-9.51,9.67-26.72,12-31.42a90.83,90.83,0,0,0,6.23-16.59c-12.89-8.39-30.93-.87-38,13.86C790.68,645.41,799.63,662.26,817.26,665.24Z"/><path class="cls-22" d="M816.24,668c-3.18,6.49-2.67,7.75-2.67,11.29s-.82,21.45.79,28.33c0,0,7.9-8.42,12.17-7s11.06,7,11.06,7l-12.13-30.73C822.91,670.3,819.43,667.9,816.24,668Z"/><path class="cls-22" d="M749.46,671.15c-.14-3.61,9.95-10.39,11.45-7,8.24,18.66,29.63,42.66,37,47.82a29,29,0,0,0-9,3.95c-4.14,3-11.8,16.47-11.8,16.47S751,707.65,749.46,671.15Z"/><path class="cls-18" d="M816.26,730a5.93,5.93,0,1,1-5.93-5.92,5.92,5.92,0,0,1,5.93,5.92Z"/><path class="cls-18" d="M819.3,751.87a6,6,0,1,1-6-5.93h0a5.93,5.93,0,0,1,5.95,5.91Z"/><path class="cls-43" d="M685.56,995c26.92-6.95,56-13.16,87.06-18.77a21.62,21.62,0,0,0-3.09-6c-17.66-25.49-30.95-53.71-72.58-41.36-16.92,5-8.28,33.44,0,43.38C705.57,982.51,681.85,982.78,685.56,995Z"/></g><g id="hand-5"><path class="cls-31" d="M921.44,965.15c38-6,49-62.91,54.85-92,4.32-21.7,13-76.85,17.17-103.71,1.45-9.26,2.35-15.15,2.35-15.15s-19.2,3.41-38.72-14.74c-1.2,3-3.13,7.13-5.59,12.17-17.81,36.7-64.19,120.89-72.73,149.52C869.08,933.79,883.94,971.14,921.44,965.15Z"/><path class="cls-34" d="M976.29,873.12c2-10.11,5-27.5,8-45.9,3.45-21.08,7-43.48,9.18-57.85,1.45-9.26,2.35-15.15,2.35-15.15"/><path class="cls-13" d="M957.09,739.52c4.5-9,15.65-26.23,26.25-34.16,5.67-4.23,12.65-4.2,15-2.5,0,0,19.35-2.87,34,.71s17,11.66,10.94,12.36-16.48-2.85-24-3c0,0,7.61,1.8,7.44,8.82,1.81-1.07,6.06,1.71,5.16,7.45,0,0,3-3.19,4.25,2.71s-3.93,14.57-9.82,14.89-5.24-3.92-5.24-3.92-4.81,8.82-25.31,11.41c0,0-3.62,6.27-3.62,5.94S956.47,763.53,957.09,739.52Z"/><path class="cls-23" d="M983.34,705.36c5.67-4.23,12.65-4.2,15-2.5,0,0,19.35-2.87,34,.71s17,11.66,10.94,12.36-16.48-2.85-24-3c0,0,7.61,1.8,7.44,8.82,1.81-1.07,6.06,1.71,5.16,7.45,0,0,3-3.19,4.25,2.71s-3.93,14.57-9.82,14.89-5.24-3.92-5.24-3.92"/><path class="cls-23" d="M1019.27,712.9a49.11,49.11,0,0,0-10.84,0"/><path class="cls-23" d="M1031.93,729.17c-2.57,6.63-6,11.17-10.85,13.68s-11.28-4.81-11-6.85c-2.46-1.7-4-5.53.88-8.53"/><path class="cls-23" d="M1026.79,721.72c-1.35,7.1-6,16-16.61,14.28"/><path class="cls-23" d="M981,737.07c12.11-5.43,14.22-12.86,14.82-18.48,0,0,17,12.4,20.92,9.24,4.88-4-14.47-22.71-18.34-25"/><path class="cls-22" d="M951.5,751.69c10.68,9.89,23.79,18.28,42,17.72,1.45-9.26,2.35-15.15,2.35-15.15s-19.2,3.41-38.72-14.74C955.89,742.49,954,746.65,951.5,751.69Z"/><path class="cls-18" d="M962.18,749.25a3.34,3.34,0,1,1-3.34-3.35h0a3.31,3.31,0,0,1,3.32,3.32Z"/></g><g id="upper_hand-6" data-name="upper hand-6"><path class="cls-31" d="M662.28,849.15c9.88,34.22,21.33,67.75,27.55,86.06,15.33,45.31,72,72.32,78.54,30.85,7.74-49.32-25.3-138.3-37.15-211.77-.19-1.17-.36-2.44-.52-3.78-3.22-25.94-2.84-79.27-37-77.33a42.7,42.7,0,0,0-10.5,1.91l-.69.26c-19.63,6.76-30.26,28.14-35.16,53.35a190.69,190.69,0,0,0-3.14,26.86C643.17,776.22,651.85,813.08,662.28,849.15Z"/><path class="cls-28" d="M647.36,728.7a49.5,49.5,0,0,1,9.8-2.59c24.3-3.92,55,7.63,73.54,24.4-3.22-25.94-2.84-79.27-37-77.33a42.7,42.7,0,0,0-10.5,1.91l-.69.26C662.89,682.11,652.3,703.49,647.36,728.7Z"/><path class="cls-34" d="M765.05,907c-7.23-40.72-21.51-88.87-30.34-133.33"/><path class="cls-34" d="M670,874.93c7.65,24.53,15.19,46.64,19.89,60.28a85.51,85.51,0,0,0,23,35.06"/><path class="cls-34" d="M734.73,773.67c-3.61-14.24-11.68-23.5-16.67-24.24"/></g><g id="hand-6"><path class="cls-3" d="M1070.94,759.19c-8.41-5.87-23.5-3.49-41.58,16.27a154.32,154.32,0,0,0-26.83,41.91,101.16,101.16,0,0,0-43.38-17.94c-25.56-3.81-57.29,7.61-57.29,7.61l-4.94,13.83,104.87,13.81Z"/><polygon class="cls-5" points="995.81 822.19 890.62 813.79 848.91 927.91 949.64 936.05 995.81 822.19"/><polygon class="cls-5" points="1075.55 751.87 1007.85 820.95 961.91 929.09 1027.48 867.08 1075.55 751.87"/><polygon class="cls-5" points="1007.85 820.95 995.81 822.19 949.64 936.05 961.91 929.09 1007.85 820.95"/><path class="cls-4" d="M1028.69,786.69c-9.89,10-19.88,27.24-19.88,27.24"/><path class="cls-4" d="M995.77,817.33a98.09,98.09,0,0,0-28-10.85"/><path class="cls-4" d="M994.54,819.32c-9-4-27.44-7.43-27.44-7.43"/><path class="cls-5" d="M1013.63,817.64c-2.69-5.32-17.91-9-20.89,7.23A18.05,18.05,0,0,0,1004,827C1007.2,826.42,1013.63,817.64,1013.63,817.64Z"/><path class="cls-13" d="M895.46,877.51A119.4,119.4,0,0,0,922,857.44c7.41-7.23,26.7-16.83,28.51-15.71s3.21,6.08-7,15a31.35,31.35,0,0,0-7.7,9,22.68,22.68,0,0,0,11.37,1.09c6.5-1,34-2.8,37.27-3.15s4,4.14-1,6.13c8-1.19,10.14,3.53,3,7.9,0,0,6.22,1.67-1.05,7.07A145.67,145.67,0,0,1,966,896.15s14.78-4.29,16.7-4,3,3.32-2.1,6S940,914.62,933.86,916.43c-7.54,2.19-22.73,4.79-22.73,4.79S892.84,894.83,895.46,877.51Z"/><path class="cls-31" d="M747.8,986.54c34.48,2.35,120.89-38.56,154.66-54.67,6.9-3.27,11.6-5.42,13.21-6.15,0,0-.69-41.09-22.61-49.31a38.38,38.38,0,0,1-9,3.61,70.44,70.44,0,0,1-12.53,2.44c-14.46,1.61-59.55,8.3-84.1,10.29s-55.59,18.78-66.69,38.74C713.09,945.18,713.76,984.26,747.8,986.54Z"/><path class="cls-34" d="M747.8,986.54c34.48,2.35,120.89-38.56,154.66-54.67,6.9-3.27,11.6-5.42,13.21-6.15"/><path class="cls-34" d="M893.06,876.44a38.41,38.41,0,0,1-9,3.62,70.44,70.44,0,0,1-12.53,2.44c-14.46,1.61-59.55,8.3-84.1,10.29-16.27,1.32-35.23,9-49.5,19.88"/><path class="cls-23" d="M932.32,849.91c8-4.9,17-8.92,18.19-8.18,1.8,1.13,3.21,6.08-7,15a31.35,31.35,0,0,0-7.7,9,22.68,22.68,0,0,0,11.37,1.09c6.5-1,34-2.8,37.27-3.15s4,4.14-1,6.13c8-1.19,10.14,3.53,3,7.9,0,0,6.22,1.67-1.05,7.07A145.67,145.67,0,0,1,966,896.15s14.78-4.29,16.7-4,3,3.32-2.1,6c-1.5.8-5.73,2.59-11.08,4.76"/><path class="cls-22" d="M883.94,880.15c10.58,8,18,31.35,18.52,51.76,6.9-3.28,11.6-5.43,13.21-6.15,0,0-.69-41.09-22.61-49.32A38.48,38.48,0,0,1,883.94,880.15Z"/><path class="cls-18" d="M912,918.82a3.78,3.78,0,1,1-3.8-3.76h0A3.78,3.78,0,0,1,912,918.82Z"/><path class="cls-23" d="M966,896.15c-4.68,1.44-8.19,2.84-8.19,2.84"/><line class="cls-23" x1="986.48" y1="877.71" x2="955.23" y2="888.59"/><line class="cls-23" x1="983.52" y1="869.81" x2="954.19" y2="877.71"/></g><g id="head-3"><path class="cls-13" d="M789,610.52c7.74,18.87,27.6,51.43,51.41,35.49a48.39,48.39,0,0,0,12.66-12.66A65.58,65.58,0,0,0,862.67,612a77,77,0,0,0,1.17-32.92,58.67,58.67,0,0,0-3.16-11C850.9,544,819.24,546,807.58,557.63c-.32.32-.68.68-1,1.08a78.89,78.89,0,0,0-13.62,23.5c-.47,1.21-.9,2.41-1.3,3.62C788.21,595.46,786.8,605.1,789,610.52Z"/><path class="cls-22" d="M856.83,605.84a2.64,2.64,0,1,1-2.64-2.64h0a2.62,2.62,0,0,1,2.62,2.62Z"/><path class="cls-22" d="M842.33,601.23a2.64,2.64,0,1,1-2.64-2.64,2.64,2.64,0,0,1,2.64,2.64Z"/><path class="cls-13" d="M794.73,609.53c-11.06,2.94-23.81-10.85-17.37-22.27s19-4.2,20.59,3.92Z"/><path class="cls-23" d="M794.73,609.53a12.59,12.59,0,0,1-6,0"/><path class="cls-23" d="M792.92,597.74c-1-9.27-9.38-9.73-11.53-5.55"/><path class="cls-23" d="M792.65,596.06c-7.12-7.74-16.07,5.21-2,6.34"/><path class="cls-40" d="M791.62,585.7a7.91,7.91,0,0,0,.22,1c1.61,5.7,7.61,2.86,10-2.54,2.82-6.4,19.33-29.43,34.2-13.65,11,11.68,20.11,13.25,27.75,8.6a56.39,56.39,0,0,0-3-10.43,5.66,5.66,0,0,0-.2-.58C850.9,544,819.24,546,807.58,557.63c-.32.32-.68.68-1,1.08a78.89,78.89,0,0,0-13.62,23.5C792.45,583.34,792,584.51,791.62,585.7Z"/><path class="cls-41" d="M791.84,586.69c1.61,5.7,7.61,2.86,10-2.54,2.82-6.4,19.33-29.43,34.2-13.65,11,11.68,20.11,13.25,27.75,8.6a56.39,56.39,0,0,0-3-10.43c-9.38,3.91-18.08-1.64-23.81-6.34-7.23-5.81-16-5.34-25.07,1C804,568.94,797.23,587.67,791.84,586.69Z"/><path class="cls-42" d="M854.39,581.36c1.46-16.27-5.32-26.75-10.85-29.9"/><path class="cls-42" d="M850.05,580.55c-.69-6.62-12.55-30.73-26-30.73"/><path class="cls-42" d="M834.88,569.38c-4.21-10.24-9.4-16.78-15.58-18.42"/><path class="cls-42" d="M809.79,555.71c-1,8.37-.2,13.9,2.24,15.26"/><path class="cls-42" d="M804.69,560.88c-2.76,10.76-.45,15.6,1.16,16.85"/><path class="cls-23" d="M853,596.73c-4.94,2-7.23,5.42-6,8.57,1.52,3.9,4,10.84-.76,13.88"/><path class="cls-40" d="M846.9,587.6c-.5,4-14.62,0-15.16-2.33C831,582.1,847.79,580.62,846.9,587.6Z"/><path class="cls-40" d="M854.77,591.16c-1.81,3.24,10.84,7.83,12.65,6.31C869.52,595.48,857.73,585.45,854.77,591.16Z"/><path class="cls-27" d="M838.64,624a18.43,18.43,0,0,1-10.25-10.23s-4.7,8.21.85,12.46C833.49,629.41,838.64,624,838.64,624Z"/><circle class="cls-20" cx="815.63" cy="601.72" r="12.22"/><path class="cls-20" d="M848.84,624.12a12,12,0,0,0,4.25,9.23A65.58,65.58,0,0,0,862.67,612a10.91,10.91,0,0,0-1.61-.12A12.22,12.22,0,0,0,848.84,624.12Z"/></g></g><g class="cls-44"><path class="cls-45" d="M338.89,1080H0V847.62c85.71,18.77,141,47.88,175.29,70.55,63.9,42.24,82.69,80.43,160.46,158.69Z"/><path class="cls-46" d="M851.37,1080H338.89l-3.14-3.14C258,998.6,239.19,960.41,175.29,918.17,141,895.5,85.71,866.39,0,847.62V123.1c28.33,72,82.06,165.12,192.94,226.41C387.29,457,559.21,357.18,674.88,451.42c121.74,99.16-15.24,253.32,117.13,527A769.23,769.23,0,0,0,851.37,1080Z"/><path class="cls-47" d="M1920,692v388H851.37A769.23,769.23,0,0,1,792,978.39c-132.37-273.65,4.61-427.81-117.13-527C559.21,357.18,387.29,457,192.94,349.51,82.06,288.22,28.33,195.06,0,123.1V0H1039c42.73,155.36,126.16,239.18,196.36,287.24C1396.83,398,1564.72,372,1745.76,499.52,1838.17,564.65,1890.35,639,1920,692Z"/><path class="cls-48" d="M1920,0V692c-29.65-52.94-81.83-127.33-174.24-192.46C1564.73,372,1396.83,398,1235.32,287.24,1165.12,239.18,1081.69,155.36,1039,0Z"/></g></g></g></svg>