<svg xmlns="http://www.w3.org/2000/svg" viewBox="0 0 409.6 409.61"><defs><style>.cls-1{fill:#fff;}</style></defs><title>Asset 9fbLogo</title><g id="Layer_2" data-name="Layer 2"><g id="Layer_1-2" data-name="Layer 1"><path class="cls-1" d="M0,366.41V43.21c1.17-.43.83-1.56,1-2.39C7.75,14.94,26.94,0,53.62,0Q204.82,0,356,0a58.11,58.11,0,0,1,13.48,1.3c24.35,5.77,40.09,25.91,40.1,51.48q0,152,0,304c0,1.07,0,2.14-.05,3.2a51.06,51.06,0,0,1-33.86,46.53c-3.32,1.18-6.73,2.09-10.09,3.12h-84q0-68.37-.08-136.76c0-3.39.92-4.19,4.2-4.12,10.26.22,20.53,0,30.79.16,2.77.05,3.94-.91,4.91-3.37,7.45-18.94,15.05-37.82,22.58-56.73.48-1.2,1.33-2.33,1-4h-4.35c-18.39,0-36.79-.08-55.18.08-3.21,0-3.95-.92-3.92-4,.15-15.2,0-30.39.08-45.59,0-9.88,3.35-13.48,13.14-14.34,1.72-.15,3.46-.15,5.2-.15,9.86,0,19.72-.1,29.59.05,2.64,0,3.33-.77,3.31-3.36q-.15-28.59,0-57.18c0-2.75-.64-3.61-3.5-3.59-16,.15-32,.08-48,.07A72,72,0,0,0,268.26,78c-36.94,6.79-63,37.74-63.43,75.43q-.26,23.4,0,46.79c0,3.48-.65,4.73-4.48,4.66-14.26-.25-28.52,0-42.79-.16-2.9,0-4.13.42-4.1,3.81.19,18.93.15,37.85,0,56.78,0,2.82.77,3.56,3.56,3.54,14.4-.14,28.79.05,43.19-.15,3.57-.05,4.62.79,4.61,4.52-.14,45.45-.09,90.91-.09,136.36H43.2c-.54-1.29-1.83-.89-2.77-1.13q-31.27-8-39.29-39.3C.89,368.24,1.29,367,0,366.41Z"/></g></g></svg>