<svg xmlns="http://www.w3.org/2000/svg" viewBox="0 0 3607.98 802.25"><defs><style>.cls-1{fill:#fff;}.cls-2{fill:#f1f2f2;}</style></defs><title>Asset 10footerLogo</title><g id="Layer_2" data-name="Layer 2"><g id="Layer_1-2" data-name="Layer 1"><path class="cls-1" d="M404.21,336,0,627.72,32.94,750.64l495.92,50.54L497.19,683,151.68,653l284-199.72Z"/><path class="cls-1" d="M0,1.07,31.42,118.32l345.76,31L93,348.08l31.67,118.19L528.86,174.53,495.93,51.61Z"/><path class="cls-1" d="M732.48,552.82h186V639H613V559l184.76-266H613V206.7H918.47v80.07Z"/><path class="cls-1" d="M1092.76,291.08v87.45h141v81.3h-141v94.84h159.51V639H987.44V206.7h264.83v84.38Z"/><path class="cls-1" d="M1512.15,549.74V639h-53.58q-57.27,0-89.3-28t-32-91.45V382.84h-41.88V295.39h41.88V211.63h105.31v83.76h69v87.45h-69v138q0,15.39,7.39,22.17t24.64,6.77Z"/><path class="cls-1" d="M1762.19,549.74V639h-53.58q-57.27,0-89.3-28t-32-91.45V382.84h-41.88V295.39h41.88V211.63H1692.6v83.76h69v87.45h-69v138q0,15.39,7.39,22.17t24.63,6.77Z"/><path class="cls-1" d="M1819.77,373.6q20-40,54.5-61.58t77-21.56q36.33,0,63.74,14.78t42.19,38.8V295.39H2162.5V639H2057.19V590.39q-15.4,24-42.81,38.8T1950.64,644q-41.88,0-76.37-21.86t-54.5-62.21q-20-40.32-20-93.3T1819.77,373.6ZM2035.32,405q-21.87-22.77-53.27-22.78t-53.27,22.48q-21.87,22.49-21.87,61.89t21.87,62.51q21.85,23.1,53.27,23.1t53.27-22.79q21.85-22.78,21.87-62.2T2035.32,405Z"/><path class="cls-1" d="M2561,454.59q22.77,29.27,22.79,66.82,0,54.21-37.88,85.92T2440.25,639H2238.86V206.7h194.61q65.9,0,103.16,30.18t37.26,81.91q0,38.19-20,63.44t-53.28,35.1Q2538.16,425.34,2561,454.59Zm-216.79-73h69q25.86,0,39.72-11.39t13.86-33.57q0-22.17-13.86-33.87t-39.72-11.7h-69ZM2462.73,542q14.46-12,14.47-34.79t-15.09-35.72q-15.09-12.93-41.57-12.94h-76.37v95.46h77.6Q2448.25,554.05,2462.73,542Z"/><path class="cls-1" d="M2995.76,295.39,2780.21,802.25H2666.88l78.84-174.91-139.81-332h117.64L2803,510.33l78.83-214.94Z"/><path class="cls-1" d="M3225.47,549.74V639h-53.58q-57.27,0-89.3-28t-32-91.45V382.84h-41.88V295.39h41.88V211.63h105.32v83.76h69v87.45h-69v138q0,15.39,7.39,22.17t24.63,6.77Z"/><path class="cls-1" d="M3606.07,492.47H3367.73q2.46,32,20.63,49T3433,558.37q39.4,0,54.81-33.26h112.09a153.88,153.88,0,0,1-31.1,61q-22.48,27.1-56.35,42.49T3436.71,644q-50.51,0-89.92-21.55t-61.59-61.59q-22.17-40-22.17-93.61t21.87-93.62q21.85-40,61.27-61.58t90.54-21.56q49.88,0,88.68,20.94a150.36,150.36,0,0,1,60.67,59.74q21.84,38.81,21.86,90.53A269.22,269.22,0,0,1,3606.07,492.47ZM3500.14,434q0-27.09-18.47-43.11t-46.19-16q-26.49,0-44.65,15.39T3368.35,434Z"/><path class="cls-2" d="M2368.93,2.14V152.32h-36.59V90.49h-56.9v61.83h-36.58V2.14h36.58V61h56.9V2.14Z"/><path class="cls-2" d="M2488.72,125.79h-56l-9,26.53H2385.4L2439.73,2.14h42.36l54.34,150.18h-38.72Zm-9.41-28.24-18.61-55-18.4,55Z"/><path class="cls-2" d="M2556.32,37.33a68.86,68.86,0,0,1,26.85-27.17q17.22-9.73,39-9.73Q2649,.43,2668,14.55t25.46,38.5h-40.22a32.48,32.48,0,0,0-12.73-14.33,35.79,35.79,0,0,0-18.72-4.92q-16.89,0-27.38,11.77T2583.92,77q0,19.69,10.48,31.45t27.38,11.77a35.79,35.79,0,0,0,18.72-4.92A32.45,32.45,0,0,0,2653.23,101h40.22q-6.42,24.39-25.46,38.4t-45.78,14q-21.83,0-39-9.74a69,69,0,0,1-26.85-27.06q-9.62-17.32-9.62-39.58T2556.32,37.33Z"/><path class="cls-2" d="M2803,152.32,2752.49,86v66.32h-36.58V2.14h36.58V68l50.06-65.89h43l-58.19,73.59,60.33,76.59Z"/><path class="cls-2" d="M2958.5,125.79h-56.05l-9,26.53h-38.29L2909.51,2.14h42.36l54.34,150.18h-38.72Zm-9.41-28.24-18.61-55-18.4,55Z"/><path class="cls-2" d="M3130.71,2.14V31.45h-39.79V152.32h-36.58V31.45h-39.79V2.14Z"/><path class="cls-2" d="M3279.18,2.14V152.32h-36.59V90.49h-56.9v61.83h-36.58V2.14h36.58V61h56.9V2.14Z"/><path class="cls-2" d="M3337.68,144a73.51,73.51,0,0,1-28-27.49q-10.38-17.64-10.38-39.68t10.38-39.58a73.8,73.8,0,0,1,28-27.38,81.53,81.53,0,0,1,77.66,0,72.35,72.35,0,0,1,27.81,27.38q10.16,17.55,10.16,39.58T3443,116.48A73,73,0,0,1,3415.23,144a81.32,81.32,0,0,1-77.55,0Zm67.6-35.51q10.8-12,10.81-31.66,0-19.89-10.81-31.77t-28.77-11.87q-18.18,0-29,11.77t-10.8,31.87q0,19.89,10.8,31.77t29,11.87Q3394.48,120.44,3405.28,108.46Z"/><path class="cls-2" d="M3608,152.32H3571.4l-61.19-92.63v92.63h-36.58V2.14h36.58L3571.4,95.2V2.14H3608Z"/></g></g></svg>