<svg xmlns="http://www.w3.org/2000/svg" viewBox="0 0 441.11 440.83"><defs><style>.cls-1{fill:#fff;}</style></defs><title>Asset 8igkLogo</title><g id="Layer_2" data-name="Layer 2"><g id="Layer_1-2" data-name="Layer 1"><path class="cls-1" d="M0,323.76V198.91l44.36,0c0,36.72-.36,73.45.13,110.16.5,36.44,17.75,63,50.1,79.43,12.52,6.35,26.34,8.14,40.38,8.13q85.2-.09,170.4,0c15.25,0,29.92-2.35,43.51-9.7,29.14-15.74,45.36-40,47.2-73.16.91-16.43.31-32.95.45-49.42.19-22.35-.6-44.69.25-67h44c0,38.31.39,76.62-.06,114.93-.36,30.45-10.64,57.71-30.27,80.95-26.62,31.53-61.05,47.29-102.25,47.48-58.55.26-117.1.09-175.64,0a133.88,133.88,0,0,1-16.75-1C86.85,436,61.61,424.32,40.59,404.08c-21.21-20.41-34.31-45.21-38.9-74.39C1.37,327.67,1.73,325.4,0,323.76Z"/><path class="cls-1" d="M440.74,197.33h-44c-.07-1.71-.2-3.43-.21-5.14,0-19.37-.09-38.73,0-58.09s-4.64-37.22-16.09-52.93c-18.21-25-43.1-36.83-73.86-36.81q-86.05,0-172.1,0a110.79,110.79,0,0,0-12.89.55c-43.71,5.14-76.52,41.4-77.07,84.74-.29,23.09-.13,46.18-.17,69.26L0,198.91V118c1.52-1.9,1.32-4.27,1.63-6.44a125.88,125.88,0,0,1,27.76-62.8C47.85,26.24,71.23,11,99.74,3.92,105.79,2.42,112.17,2.54,118,0H322c.57,1.19,1.73.78,2.65.9a132.86,132.86,0,0,1,53.45,18.73,130.5,130.5,0,0,1,33.52,29.69Q437.4,81,440.19,121.27C441.92,146.58,440.68,172,440.74,197.33Z"/><path class="cls-1" d="M331.87,197.17c5.67,28.55,1.67,55.61-13.2,80.72-17,28.66-41.88,47.09-74.47,53.85-36.76,7.63-70-1-98.54-25.51-22.59-19.41-35.19-44.38-38.54-73.86A101.83,101.83,0,0,1,108.64,199H154c-3,11.27-4.18,22.56-2.11,34.24,4.92,27.67,30.22,53.41,60.47,56.49,31,3.15,61.83-14.78,73-43.93a70.17,70.17,0,0,0,1-48.31Z"/><path class="cls-1" d="M331.87,197.17l-45.58.32c-.27-.66-.56-1.32-.81-2A69.61,69.61,0,0,0,184,161.13c-14.6,8.93-24.33,21.81-30,37.87H108.64c5.33-27.55,19-50.12,40.86-67.61,23.75-19,51.12-26.94,81.31-24.42a109.64,109.64,0,0,1,52.62,18.59,112.7,112.7,0,0,1,45,58.77C329.85,188.51,330.74,192.88,331.87,197.17Z"/><path class="cls-1" d="M361.89,107.27A27.25,27.25,0,1,1,334.59,80,27.16,27.16,0,0,1,361.89,107.27Z"/></g></g></svg>