<svg xmlns="http://www.w3.org/2000/svg" viewBox="0 0 384.03 384.03"><defs><style>.cls-1{fill:#fff;}</style></defs><title>Asset 7linkLogo</title><g id="Layer_2" data-name="Layer 2"><g id="Layer_1-2" data-name="Layer 1"><path class="cls-1" d="M339,384H44.28c-1.06-1.29-2.69-1.09-4.06-1.41C17,377.14.09,356.31.07,332.37Q0,192,.08,51.53A51.83,51.83,0,0,1,51.51.09q140.42-.19,280.84,0c24.16,0,44.81,16.9,50.34,40.48.35,1.49,0,3.25,1.34,4.47V339.78c-1.31.77-1,2.22-1.26,3.34-5.55,21.51-19.23,34.69-40.72,39.94C341,383.31,339.72,382.77,339,384ZM204.58,169.71c0-3.08,0-6.15,0-9.23-.08-6.56-2.61-9.16-9.06-9.18q-16.31-.06-32.62,0c-6.57,0-9.11,2.55-9.11,9q0,71.24,0,142.49c0,6.46,2.68,9.18,9.05,9.19q15.38,0,30.74,0c8.74,0,10.86-2.09,10.86-10.8,0-24,0-48,0-72,0-9,2-17.61,6.92-25.3,6.19-9.66,15.4-12.61,26.29-11.11,9.84,1.35,15.78,7.38,18.86,16.55,2.68,7.94,2.83,16.17,2.82,24.43q0,34.69,0,69.38c0,6.28,2.65,8.84,8.94,8.85q16.88,0,33.75,0c6.64,0,9.27-2.64,9.27-9.36q0-38.06,0-76.12a175,175,0,0,0-2.17-28,80.94,80.94,0,0,0-5.38-19c-8.14-18.82-22.83-28.51-42.91-30.23C239.16,147.46,219.21,150.52,204.58,169.71ZM80.26,231.4q0,35.61,0,71.23c0,6.38,3,9.38,9.45,9.4q15.73,0,31.49,0c6.61,0,9.75-2.95,9.75-9.52q.07-70.86,0-141.71c0-6.65-3-9.55-9.7-9.59q-15.55-.12-31.12,0c-7.15,0-9.89,2.89-9.89,10.1Q80.25,196.34,80.26,231.4Zm58-126.78A32.61,32.61,0,0,0,104.83,72c-17.63.26-32.13,15.25-32,33a32.71,32.71,0,0,0,65.42-.46Z"/></g></g></svg>