<svg xmlns="http://www.w3.org/2000/svg" viewBox="0 0 2994.98 802.25"><defs><style>.cls-1{fill:#fff;}.cls-2{fill:#f1f2f2;}</style></defs><title>Asset 5logoLetters</title><g id="Layer_2" data-name="Layer 2"><g id="Layer_1-2" data-name="Layer 1"><path class="cls-1" d="M119.48,552.82h186V639H0V559l184.76-266H0V206.7H305.47v80.07Z"/><path class="cls-1" d="M479.76,291.08v87.45h141v81.3h-141v94.84H639.27V639H374.44V206.7H639.27v84.38Z"/><path class="cls-1" d="M899.15,549.74V639H845.57q-57.27,0-89.3-28t-32-91.45V382.84H682.37V295.39h41.88V211.63H829.56v83.76h69v87.45h-69v138q0,15.39,7.39,22.17t24.64,6.77Z"/><path class="cls-1" d="M1149.19,549.74V639h-53.58q-57.27,0-89.3-28t-32-91.45V382.84H932.4V295.39h41.88V211.63H1079.6v83.76h69v87.45h-69v138q0,15.39,7.39,22.17t24.63,6.77Z"/><path class="cls-1" d="M1206.77,373.6q20-40,54.5-61.58t77-21.56q36.33,0,63.74,14.78t42.19,38.8V295.39H1549.5V639H1444.19V590.39q-15.4,24-42.81,38.8T1337.64,644q-41.9,0-76.37-21.86t-54.5-62.21q-20-40.32-20-93.3T1206.77,373.6ZM1422.32,405q-21.87-22.77-53.27-22.78t-53.27,22.48q-21.87,22.49-21.87,61.89t21.87,62.51q21.85,23.1,53.27,23.1t53.27-22.79q21.86-22.78,21.87-62.2T1422.32,405Z"/><path class="cls-1" d="M1948,454.59q22.77,29.27,22.78,66.82,0,54.21-37.87,85.92T1827.25,639H1625.86V206.7h194.61q65.9,0,103.16,30.18t37.26,81.91q0,38.19-20,63.44t-53.27,35.1Q1925.16,425.34,1948,454.59Zm-216.79-73h69q25.86,0,39.72-11.39t13.86-33.57q0-22.17-13.86-33.87t-39.72-11.7h-69ZM1849.73,542q14.46-12,14.47-34.79t-15.09-35.72q-15.1-12.93-41.57-12.94h-76.37v95.46h77.6Q1835.25,554.05,1849.73,542Z"/><path class="cls-1" d="M2382.76,295.39,2167.2,802.25H2053.88l78.83-174.91-139.8-332h117.63L2190,510.33l78.83-214.94Z"/><path class="cls-1" d="M2612.47,549.74V639h-53.58q-57.27,0-89.3-28t-32-91.45V382.84h-41.88V295.39h41.88V211.63h105.32v83.76h69v87.45h-69v138q0,15.39,7.39,22.17t24.63,6.77Z"/><path class="cls-1" d="M2993.07,492.47H2754.73q2.46,32,20.63,49T2820,558.37q39.4,0,54.81-33.26h112.09a153.88,153.88,0,0,1-31.1,61q-22.48,27.1-56.35,42.49T2823.71,644q-50.51,0-89.92-21.55t-61.59-61.59q-22.17-40-22.17-93.61t21.86-93.62q21.86-40,61.28-61.58t90.54-21.56q49.88,0,88.68,20.94a150.27,150.27,0,0,1,60.66,59.74q21.85,38.81,21.87,90.53A269.22,269.22,0,0,1,2993.07,492.47ZM2887.14,434q0-27.09-18.47-43.11t-46.2-16q-26.47,0-44.65,15.39T2755.34,434Z"/><path class="cls-2" d="M1755.92,2.14V152.32h-36.58V90.49h-56.9v61.83h-36.58V2.14h36.58V61h56.9V2.14Z"/><path class="cls-2" d="M1875.72,125.79h-56l-9,26.53h-38.3L1826.73,2.14h42.36l54.34,150.18h-38.72Zm-9.41-28.24-18.61-55-18.4,55Z"/><path class="cls-2" d="M1943.32,37.33a68.86,68.86,0,0,1,26.85-27.17q17.22-9.73,39-9.73Q2036,.43,2055,14.55t25.46,38.5h-40.22a32.48,32.48,0,0,0-12.73-14.33,35.79,35.79,0,0,0-18.72-4.92q-16.89,0-27.38,11.77T1970.92,77q0,19.69,10.48,31.45t27.38,11.77a35.79,35.79,0,0,0,18.72-4.92A32.45,32.45,0,0,0,2040.23,101h40.22q-6.42,24.39-25.46,38.4t-45.78,14q-21.82,0-39-9.74a69,69,0,0,1-26.85-27.06q-9.63-17.32-9.63-39.58T1943.32,37.33Z"/><path class="cls-2" d="M2190,152.32,2139.49,86v66.32h-36.58V2.14h36.58V68l50.06-65.89h43l-58.19,73.59,60.33,76.59Z"/><path class="cls-2" d="M2345.5,125.79h-56.05l-9,26.53h-38.3L2296.51,2.14h42.36l54.34,150.18h-38.72Zm-9.41-28.24-18.61-55-18.4,55Z"/><path class="cls-2" d="M2517.71,2.14V31.45h-39.79V152.32h-36.58V31.45h-39.79V2.14Z"/><path class="cls-2" d="M2666.17,2.14V152.32h-36.58V90.49h-56.9v61.83h-36.58V2.14h36.58V61h56.9V2.14Z"/><path class="cls-2" d="M2724.68,144a73.44,73.44,0,0,1-28-27.49q-10.38-17.64-10.38-39.68t10.38-39.58a73.73,73.73,0,0,1,28-27.38,81.53,81.53,0,0,1,77.66,0,72.35,72.35,0,0,1,27.81,27.38q10.16,17.55,10.16,39.58T2830,116.48A73,73,0,0,1,2802.23,144a81.32,81.32,0,0,1-77.55,0Zm67.6-35.51q10.8-12,10.81-31.66,0-19.89-10.81-31.77t-28.77-11.87q-18.2,0-29,11.77t-10.8,31.87q0,19.89,10.8,31.77t29,11.87Q2781.48,120.44,2792.28,108.46Z"/><path class="cls-2" d="M2995,152.32H2958.4l-61.19-92.63v92.63h-36.58V2.14h36.58L2958.4,95.2V2.14H2995Z"/></g></g></svg>