<svg xmlns="http://www.w3.org/2000/svg" viewBox="0 0 2994.92 595.54"><defs><style>.cls-1{fill:#fff;}</style></defs><title>Asset 11onlyZetta</title><g id="Layer_2" data-name="Layer 2"><g id="Layer_1-2" data-name="Layer 1"><path class="cls-1" d="M119.48,346.12h186v86.22H0V352.28L184.76,86.22H0V0H305.47V80.06Z"/><path class="cls-1" d="M479.76,84.37v87.46h141v81.29h-141V348H639.27v84.37H374.44V0H639.27V84.37Z"/><path class="cls-1" d="M899.15,343v89.3H845.57q-57.27,0-89.3-28t-32-91.46V176.14H682.37V88.69h41.88V4.93H829.56V88.69h69v87.45h-69v138q0,15.41,7.39,22.17T861.59,343Z"/><path class="cls-1" d="M1149.19,343v89.3h-53.58q-57.27,0-89.3-28t-32-91.46V176.14H932.4V88.69h41.88V4.93H1079.6V88.69h69v87.45h-69v138q0,15.41,7.39,22.17t24.63,6.78Z"/><path class="cls-1" d="M1206.77,166.9q20-40,54.5-61.59t77-21.55q36.33,0,63.74,14.78t42.19,38.8V88.69H1549.5V432.34H1444.19V383.69q-15.4,24-42.81,38.8t-63.74,14.78q-41.9,0-76.37-21.87t-54.5-62.2q-20-40.33-20-93.3T1206.77,166.9Zm215.55,31.41q-21.87-22.78-53.27-22.79T1315.78,198q-21.87,22.49-21.87,61.9t21.87,62.51q21.85,23.08,53.27,23.09t53.27-22.79q21.86-22.77,21.87-62.2T1422.32,198.31Z"/><path class="cls-1" d="M1948,247.89q22.77,29.25,22.78,66.82,0,54.19-37.87,85.91t-105.62,31.72H1625.86V0h194.61q65.9,0,103.16,30.18t37.26,81.91q0,38.19-20,63.43t-53.27,35.11Q1925.16,218.64,1948,247.89Zm-216.79-73h69q25.86,0,39.72-11.4T1853.73,130q0-22.17-13.86-33.87t-39.72-11.71h-69Zm118.56,160.43q14.46-12,14.47-34.8t-15.09-35.72q-15.1-12.93-41.57-12.93h-76.37v95.46h77.6Q1835.25,347.35,1849.73,335.34Z"/><path class="cls-1" d="M2382.76,88.69,2167.2,595.54H2053.88l78.83-174.9L1992.91,88.69h117.63L2190,303.62l78.83-214.93Z"/><path class="cls-1" d="M2612.47,343v89.3h-53.58q-57.27,0-89.3-28t-32-91.46V176.14h-41.88V88.69h41.88V4.93h105.32V88.69h69v87.45h-69v138q0,15.41,7.39,22.17T2574.9,343Z"/><path class="cls-1" d="M2993.07,285.76H2754.73q2.46,32,20.63,49T2820,351.66q39.4,0,54.81-33.26h112.09a153.82,153.82,0,0,1-31.1,61q-22.48,27.12-56.35,42.5t-75.75,15.4q-50.51,0-89.92-21.56t-61.59-61.59q-22.17-40-22.17-93.61t21.86-93.61a151.4,151.4,0,0,1,61.28-61.59q39.4-21.54,90.54-21.55,49.88,0,88.68,20.94a150.27,150.27,0,0,1,60.66,59.74q21.85,38.79,21.87,90.53A269.18,269.18,0,0,1,2993.07,285.76Zm-105.93-58.5q0-27.1-18.47-43.12t-46.2-16q-26.47,0-44.65,15.4t-22.48,43.73Z"/></g></g></svg>